<?xml version="1.0" encoding="UTF-8" standalone="no"?>
<!DOCTYPE svg PUBLIC "-//W3C//DTD SVG 1.1//EN"
 "http://www.w3.org/Graphics/SVG/1.1/DTD/svg11.dtd">
<!-- Generated by graphviz version 2.39.20150613.2112 (20150613.2112)
 -->
<!-- Title: Concepts Pages: 1 -->
<svg width="2155pt" height="364pt"
 viewBox="0.00 0.00 2154.74 364.00" xmlns="http://www.w3.org/2000/svg" xmlns:xlink="http://www.w3.org/1999/xlink">
<g id="graph0" class="graph" transform="scale(1 1) rotate(0) translate(4 360)">
<title>Concepts</title>
<polygon fill="white" stroke="transparent" points="-4,4 -4,-360 2150.74,-360 2150.74,4 -4,4"/>
<!-- code -->
<g id="node1" class="node"><title>code</title>
<ellipse fill="none" stroke="black" cx="1644.54" cy="-164" rx="63.8893" ry="18"/>
<text text-anchor="middle" x="1644.54" y="-160.3" font-family="Times,serif" font-size="14.00">Code fragment</text>
</g>
<!-- expr -->
<g id="node2" class="node"><title>expr</title>
<ellipse fill="none" stroke="black" cx="1644.54" cy="-91" rx="70.6878" ry="18"/>
<text text-anchor="middle" x="1644.54" y="-87.3" font-family="Times,serif" font-size="14.00">Implementations</text>
</g>
<!-- code&#45;&gt;expr -->
<g id="edge1" class="edge"><title>code&#45;&gt;expr</title>
<path fill="none" stroke="black" d="M1644.54,-145.955C1644.54,-137.883 1644.54,-128.176 1644.54,-119.182"/>
<polygon fill="black" stroke="black" points="1648.04,-119.09 1644.54,-109.09 1641.04,-119.09 1648.04,-119.09"/>
</g>
<!-- types -->
<g id="node5" class="node"><title>types</title>
<ellipse fill="none" stroke="black" cx="1771.54" cy="-91" rx="32.4942" ry="18"/>
<text text-anchor="middle" x="1771.54" y="-87.3" font-family="Times,serif" font-size="14.00">Types</text>
</g>
<!-- code&#45;&gt;types -->
<g id="edge4" class="edge"><title>code&#45;&gt;types</title>
<path fill="none" stroke="black" d="M1672.73,-147.799C1692.72,-136.31 1719.55,-120.886 1740.21,-109.01"/>
<polygon fill="black" stroke="black" points="1742.01,-112.014 1748.93,-103.996 1738.52,-105.945 1742.01,-112.014"/>
</g>
<!-- Function -->
<g id="node3" class="node"><title>Function</title>
<ellipse fill="none" stroke="black" cx="1639.54" cy="-18" rx="42.4939" ry="18"/>
<text text-anchor="middle" x="1639.54" y="-14.3" font-family="Times,serif" font-size="14.00">Function</text>
</g>
<!-- expr&#45;&gt;Function -->
<g id="edge2" class="edge"><title>expr&#45;&gt;Function</title>
<path fill="none" stroke="black" d="M1643.31,-72.9551C1642.75,-64.8828 1642.09,-55.1764 1641.47,-46.1817"/>
<polygon fill="black" stroke="black" points="1644.96,-45.8278 1640.78,-36.0904 1637.97,-46.3062 1644.96,-45.8278"/>
</g>
<!-- Program -->
<g id="node4" class="node"><title>Program</title>
<ellipse fill="none" stroke="black" cx="1537.54" cy="-18" rx="41.6928" ry="18"/>
<text text-anchor="middle" x="1537.54" y="-14.3" font-family="Times,serif" font-size="14.00">Program</text>
</g>
<!-- expr&#45;&gt;Program -->
<g id="edge3" class="edge"><title>expr&#45;&gt;Program</title>
<path fill="none" stroke="black" d="M1619.73,-74.0688C1604.52,-63.6918 1584.91,-50.3186 1568.67,-39.2357"/>
<polygon fill="black" stroke="black" points="1570.27,-36.0923 1560.04,-33.3477 1566.33,-41.8747 1570.27,-36.0923"/>
</g>
<!-- Type signature -->
<g id="node6" class="node"><title>Type signature</title>
<ellipse fill="none" stroke="black" cx="1924.54" cy="-18" rx="63.8893" ry="18"/>
<text text-anchor="middle" x="1924.54" y="-14.3" font-family="Times,serif" font-size="14.00">Type signature</text>
</g>
<!-- types&#45;&gt;Type signature -->
<g id="edge5" class="edge"><title>types&#45;&gt;Type signature</title>
<path fill="none" stroke="black" d="M1796.47,-79.1088C1819.82,-67.9653 1855.18,-51.0937 1882.84,-37.8995"/>
<polygon fill="black" stroke="black" points="1884.37,-41.0447 1891.89,-33.5795 1881.36,-34.7269 1884.37,-41.0447"/>
</g>
<!-- TypeDecl -->
<g id="node7" class="node"><title>TypeDecl</title>
<ellipse fill="none" stroke="black" stroke-dasharray="5,2" cx="2076.54" cy="-18" rx="70.3881" ry="18"/>
<text text-anchor="middle" x="2076.54" y="-14.3" font-family="Times,serif" font-size="14.00">Type declaration</text>
</g>
<!-- types&#45;&gt;TypeDecl -->
<g id="edge6" class="edge"><title>types&#45;&gt;TypeDecl</title>
<path fill="none" stroke="black" d="M1796.55,-79.2873C1802.06,-76.984 1807.94,-74.7442 1813.54,-73 1893.19,-48.2165 1915.98,-53.4891 1997.54,-36 2002.96,-34.8387 2008.58,-33.6088 2014.21,-32.3589"/>
<polygon fill="black" stroke="black" points="2015.32,-35.6965 2024.32,-30.098 2013.79,-28.8653 2015.32,-35.6965"/>
</g>
<!-- ClassDecl -->
<g id="node8" class="node"><title>ClassDecl</title>
<ellipse fill="none" stroke="black" stroke-dasharray="5,2" cx="1771.54" cy="-18" rx="71.4873" ry="18"/>
<text text-anchor="middle" x="1771.54" y="-14.3" font-family="Times,serif" font-size="14.00">Class declaration</text>
</g>
<!-- types&#45;&gt;ClassDecl -->
<g id="edge7" class="edge"><title>types&#45;&gt;ClassDecl</title>
<path fill="none" stroke="black" d="M1771.54,-72.9551C1771.54,-64.8828 1771.54,-55.1764 1771.54,-46.1817"/>
<polygon fill="black" stroke="black" points="1775.04,-46.0903 1771.54,-36.0904 1768.04,-46.0904 1775.04,-46.0903"/>
</g>
<!-- Metric -->
<g id="node9" class="node"><title>Metric</title>
<ellipse fill="none" stroke="black" cx="1319.54" cy="-251" rx="34.394" ry="18"/>
<text text-anchor="middle" x="1319.54" y="-247.3" font-family="Times,serif" font-size="14.00">Metric</text>
</g>
<!-- Metric&#45;&gt;code -->
<g id="edge8" class="edge"><title>Metric&#45;&gt;code</title>
<path fill="none" stroke="black" d="M1350.41,-242.737C1405.01,-228.122 1519.33,-197.52 1588.26,-179.067"/>
<polygon fill="black" stroke="black" points="1589.33,-182.402 1598.09,-176.435 1587.52,-175.64 1589.33,-182.402"/>
<text text-anchor="middle" x="1535.04" y="-203.8" font-family="Times,serif" font-size="14.00">is applied to</text>
</g>
<!-- CodeMetric -->
<g id="node10" class="node"><title>CodeMetric</title>
<ellipse fill="none" stroke="black" cx="497.544" cy="-164" rx="54.6905" ry="18"/>
<text text-anchor="middle" x="497.544" y="-160.3" font-family="Times,serif" font-size="14.00">Code metric</text>
</g>
<!-- Metric&#45;&gt;CodeMetric -->
<g id="edge9" class="edge"><title>Metric&#45;&gt;CodeMetric</title>
<path fill="none" stroke="black" d="M1285.53,-247.4C1160.27,-234.143 723.528,-187.918 559.996,-170.61"/>
<polygon fill="black" stroke="black" points="559.939,-167.084 549.626,-169.512 559.202,-174.046 559.939,-167.084"/>
</g>
<!-- TypeMetric -->
<g id="node11" class="node"><title>TypeMetric</title>
<ellipse fill="none" stroke="black" cx="1319.54" cy="-164" rx="53.8905" ry="18"/>
<text text-anchor="middle" x="1319.54" y="-160.3" font-family="Times,serif" font-size="14.00">Type metric</text>
</g>
<!-- Metric&#45;&gt;TypeMetric -->
<g id="edge10" class="edge"><title>Metric&#45;&gt;TypeMetric</title>
<path fill="none" stroke="black" d="M1319.54,-232.974C1319.54,-221.192 1319.54,-205.561 1319.54,-192.158"/>
<polygon fill="black" stroke="black" points="1323.04,-192.003 1319.54,-182.003 1316.04,-192.003 1323.04,-192.003"/>
</g>
<!-- CommentMetric -->
<g id="node12" class="node"><title>CommentMetric</title>
<ellipse fill="none" stroke="black" cx="1025.54" cy="-164" rx="71.4873" ry="18"/>
<text text-anchor="middle" x="1025.54" y="-160.3" font-family="Times,serif" font-size="14.00">Comment metric</text>
</g>
<!-- Metric&#45;&gt;CommentMetric -->
<g id="edge11" class="edge"><title>Metric&#45;&gt;CommentMetric</title>
<path fill="none" stroke="black" d="M1289.46,-242.098C1240.63,-227.649 1143.37,-198.866 1081.53,-180.567"/>
<polygon fill="black" stroke="black" points="1082.5,-177.206 1071.92,-177.724 1080.52,-183.918 1082.5,-177.206"/>
</g>
<!-- Lines of code -->
<g id="node13" class="node"><title>Lines of code</title>
<ellipse fill="none" stroke="black" cx="411.544" cy="-91" rx="59.2899" ry="18"/>
<text text-anchor="middle" x="411.544" y="-87.3" font-family="Times,serif" font-size="14.00">Lines of code</text>
</g>
<!-- CodeMetric&#45;&gt;Lines of code -->
<g id="edge12" class="edge"><title>CodeMetric&#45;&gt;Lines of code</title>
<path fill="none" stroke="black" d="M477.598,-147.069C466.282,-137.464 451.942,-125.292 439.517,-114.745"/>
<polygon fill="black" stroke="black" points="441.569,-111.895 431.68,-108.092 437.039,-117.232 441.569,-111.895"/>
</g>
<!-- Cyclomatic complexity -->
<g id="node14" class="node"><title>Cyclomatic complexity</title>
<ellipse fill="none" stroke="black" cx="582.544" cy="-91" rx="94.4839" ry="18"/>
<text text-anchor="middle" x="582.544" y="-87.3" font-family="Times,serif" font-size="14.00">Cyclomatic complexity</text>
</g>
<!-- CodeMetric&#45;&gt;Cyclomatic complexity -->
<g id="edge13" class="edge"><title>CodeMetric&#45;&gt;Cyclomatic complexity</title>
<path fill="none" stroke="black" d="M517.258,-147.069C528.281,-137.602 542.208,-125.641 554.364,-115.201"/>
<polygon fill="black" stroke="black" points="556.743,-117.772 562.049,-108.601 552.182,-112.462 556.743,-117.772"/>
</g>
<!-- Branching depth -->
<g id="node15" class="node"><title>Branching depth</title>
<ellipse fill="none" stroke="black" cx="69.5438" cy="-91" rx="69.5877" ry="18"/>
<text text-anchor="middle" x="69.5438" y="-87.3" font-family="Times,serif" font-size="14.00">Branching depth</text>
</g>
<!-- CodeMetric&#45;&gt;Branching depth -->
<g id="edge14" class="edge"><title>CodeMetric&#45;&gt;Branching depth</title>
<path fill="none" stroke="black" d="M446.785,-157.1C378.69,-147.593 254.101,-129.319 148.544,-109 142.792,-107.893 136.821,-106.67 130.855,-105.397"/>
<polygon fill="black" stroke="black" points="131.373,-101.928 120.857,-103.222 129.884,-108.768 131.373,-101.928"/>
</g>
<!-- ExprNodes -->
<g id="node16" class="node"><title>ExprNodes</title>
<ellipse fill="none" stroke="black" stroke-dasharray="5,2" cx="245.544" cy="-91" rx="88.2844" ry="18"/>
<text text-anchor="middle" x="245.544" y="-87.3" font-family="Times,serif" font-size="14.00">Expression tree nodes</text>
</g>
<!-- CodeMetric&#45;&gt;ExprNodes -->
<g id="edge15" class="edge"><title>CodeMetric&#45;&gt;ExprNodes</title>
<path fill="none" stroke="black" d="M456.495,-152.109C415.74,-140.303 352.792,-122.068 306.258,-108.588"/>
<polygon fill="black" stroke="black" points="307.17,-105.208 296.591,-105.787 305.222,-111.932 307.17,-105.208"/>
</g>
<!-- CodeCommentRatio -->
<g id="node17" class="node"><title>CodeCommentRatio</title>
<ellipse fill="none" stroke="black" cx="792.544" cy="-91" rx="97.4827" ry="18"/>
<text text-anchor="middle" x="792.544" y="-87.3" font-family="Times,serif" font-size="14.00">Code&#45;to&#45;comments ratio</text>
</g>
<!-- CodeMetric&#45;&gt;CodeCommentRatio -->
<g id="edge16" class="edge"><title>CodeMetric&#45;&gt;CodeCommentRatio</title>
<path fill="none" stroke="black" d="M541.39,-153.15C589.69,-141.198 667.976,-121.825 724.313,-107.884"/>
<polygon fill="black" stroke="black" points="725.346,-111.234 734.212,-105.435 723.664,-104.439 725.346,-111.234"/>
</g>
<!-- Type tree nodes -->
<g id="node18" class="node"><title>Type tree nodes</title>
<ellipse fill="none" stroke="black" cx="1228.54" cy="-91" rx="67.6881" ry="18"/>
<text text-anchor="middle" x="1228.54" y="-87.3" font-family="Times,serif" font-size="14.00">Type tree nodes</text>
</g>
<!-- TypeMetric&#45;&gt;Type tree nodes -->
<g id="edge17" class="edge"><title>TypeMetric&#45;&gt;Type tree nodes</title>
<path fill="none" stroke="black" d="M1298.44,-147.069C1286.35,-137.372 1271,-125.06 1257.77,-114.444"/>
<polygon fill="black" stroke="black" points="1259.84,-111.62 1249.85,-108.092 1255.46,-117.08 1259.84,-111.62"/>
</g>
<!-- Number of function arguments -->
<g id="node19" class="node"><title>Number of function arguments</title>
<ellipse fill="none" stroke="black" cx="1434.54" cy="-91" rx="120.779" ry="18"/>
<text text-anchor="middle" x="1434.54" y="-87.3" font-family="Times,serif" font-size="14.00">Number of function arguments</text>
</g>
<!-- TypeMetric&#45;&gt;Number of function arguments -->
<g id="edge18" class="edge"><title>TypeMetric&#45;&gt;Number of function arguments</title>
<path fill="none" stroke="black" d="M1344.78,-147.98C1360.32,-138.116 1380.51,-125.301 1397.8,-114.323"/>
<polygon fill="black" stroke="black" points="1399.98,-117.089 1406.54,-108.775 1396.22,-111.179 1399.98,-117.089"/>
</g>
<!-- CommentMetric&#45;&gt;CodeCommentRatio -->
<g id="edge20" class="edge"><title>CommentMetric&#45;&gt;CodeCommentRatio</title>
<path fill="none" stroke="black" d="M980.619,-149.925C943.969,-138.442 891.888,-122.125 851.821,-109.572"/>
<polygon fill="black" stroke="black" points="852.76,-106.198 842.171,-106.548 850.667,-112.878 852.76,-106.198"/>
</g>
<!-- FleschComments -->
<g id="node20" class="node"><title>FleschComments</title>
<ellipse fill="none" stroke="black" stroke-dasharray="5,2" cx="1025.54" cy="-91" rx="117.779" ry="18"/>
<text text-anchor="middle" x="1025.54" y="-87.3" font-family="Times,serif" font-size="14.00">Fleisch&#45;Kincaid on comments</text>
</g>
<!-- CommentMetric&#45;&gt;FleschComments -->
<g id="edge19" class="edge"><title>CommentMetric&#45;&gt;FleschComments</title>
<path fill="none" stroke="black" d="M1025.54,-145.955C1025.54,-137.883 1025.54,-128.176 1025.54,-119.182"/>
<polygon fill="black" stroke="black" points="1029.04,-119.09 1025.54,-109.09 1022.04,-119.09 1029.04,-119.09"/>
</g>
<!-- Criterion -->
<g id="node21" class="node"><title>Criterion</title>
<ellipse fill="none" stroke="black" cx="1500.54" cy="-338" rx="79.8859" ry="18"/>
<text text-anchor="middle" x="1500.54" y="-334.3" font-family="Times,serif" font-size="14.00">Validation criterion</text>
</g>
<!-- Criterion&#45;&gt;Metric -->
<g id="edge21" class="edge"><title>Criterion&#45;&gt;Metric</title>
<path fill="none" stroke="black" d="M1466.5,-321.636C1434.34,-306.18 1386.36,-283.114 1354.05,-267.586"/>
<polygon fill="black" stroke="black" points="1355.5,-264.4 1344.97,-263.222 1352.47,-270.709 1355.5,-264.4"/>
<text text-anchor="middle" x="1433.54" y="-290.8" font-family="Times,serif" font-size="14.00">uses</text>
</g>
<!-- Threshold -->
<g id="node22" class="node"><title>Threshold</title>
<ellipse fill="none" stroke="black" cx="1619.54" cy="-251" rx="46.2923" ry="18"/>
<text text-anchor="middle" x="1619.54" y="-247.3" font-family="Times,serif" font-size="14.00">Threshold</text>
</g>
<!-- Criterion&#45;&gt;Threshold -->
<g id="edge22" class="edge"><title>Criterion&#45;&gt;Threshold</title>
<path fill="none" stroke="black" d="M1524.34,-320.603C1543.09,-306.892 1569.36,-287.691 1589.55,-272.928"/>
<polygon fill="black" stroke="black" points="1591.79,-275.629 1597.79,-266.902 1587.65,-269.978 1591.79,-275.629"/>
<text text-anchor="middle" x="1584.04" y="-290.8" font-family="Times,serif" font-size="14.00">meets</text>
</g>
<!-- Message -->
<g id="node23" class="node"><title>Message</title>
<ellipse fill="none" stroke="black" cx="1911.54" cy="-164" rx="42.4939" ry="18"/>
<text text-anchor="middle" x="1911.54" y="-160.3" font-family="Times,serif" font-size="14.00">Message</text>
</g>
<!-- Threshold&#45;&gt;Message -->
<g id="edge23" class="edge"><title>Threshold&#45;&gt;Message</title>
<path fill="none" stroke="black" d="M1656.23,-240.069C1709.69,-224.14 1808.92,-194.576 1866.67,-177.371"/>
<polygon fill="black" stroke="black" points="1868.02,-180.621 1876.6,-174.412 1866.02,-173.913 1868.02,-180.621"/>
<text text-anchor="middle" x="1806.04" y="-203.8" font-family="Times,serif" font-size="14.00">displays</text>
</g>
<!-- Debug -->
<g id="node24" class="node"><title>Debug</title>
<ellipse fill="none" stroke="black" cx="1959.54" cy="-91" rx="34.394" ry="18"/>
<text text-anchor="middle" x="1959.54" y="-87.3" font-family="Times,serif" font-size="14.00">Debug</text>
</g>
<!-- Message&#45;&gt;Debug -->
<g id="edge24" class="edge"><title>Message&#45;&gt;Debug</title>
<path fill="none" stroke="black" d="M1923.16,-146.329C1928.94,-137.541 1936.04,-126.749 1942.42,-117.036"/>
<polygon fill="black" stroke="black" points="1945.46,-118.787 1948.03,-108.509 1939.61,-114.941 1945.46,-118.787"/>
</g>
<!-- Info -->
<g id="node25" class="node"><title>Info</title>
<ellipse fill="none" stroke="black" cx="2038.54" cy="-91" rx="27" ry="18"/>
<text text-anchor="middle" x="2038.54" y="-87.3" font-family="Times,serif" font-size="14.00">Info</text>
</g>
<!-- Message&#45;&gt;Info -->
<g id="edge25" class="edge"><title>Message&#45;&gt;Info</title>
<path fill="none" stroke="black" d="M1936.94,-149.403C1957.71,-137.461 1987.12,-120.556 2008.96,-108.005"/>
<polygon fill="black" stroke="black" points="2010.88,-110.937 2017.81,-102.919 2007.39,-104.868 2010.88,-110.937"/>
</g>
<!-- Warning -->
<g id="node26" class="node"><title>Warning</title>
<ellipse fill="none" stroke="black" cx="1864.54" cy="-91" rx="42.4939" ry="18"/>
<text text-anchor="middle" x="1864.54" y="-87.3" font-family="Times,serif" font-size="14.00">Warning</text>
</g>
<!-- Message&#45;&gt;Warning -->
<g id="edge26" class="edge"><title>Message&#45;&gt;Warning</title>
<path fill="none" stroke="black" d="M1900.17,-146.329C1894.51,-137.541 1887.56,-126.749 1881.31,-117.036"/>
<polygon fill="black" stroke="black" points="1884.17,-115.022 1875.82,-108.509 1878.29,-118.811 1884.17,-115.022"/>
</g>
</g>
</svg>
