<?xml version="1.0" encoding="UTF-8" standalone="no"?>
<!DOCTYPE svg PUBLIC "-//W3C//DTD SVG 1.1//EN"
 "http://www.w3.org/Graphics/SVG/1.1/DTD/svg11.dtd">
<!-- Generated by graphviz version 2.38.0 (20140413.2041)
 -->
<!-- Title: Concepts Pages: 1 -->
<svg width="889pt" height="746pt"
 viewBox="0.00 0.00 889.04 746.00" xmlns="http://www.w3.org/2000/svg" xmlns:xlink="http://www.w3.org/1999/xlink">
<g id="graph0" class="graph" transform="scale(1 1) rotate(0) translate(4 742)">
<title>Concepts</title>
<polygon fill="white" stroke="none" points="-4,4 -4,-742 885.04,-742 885.04,4 -4,4"/>
<!-- code -->
<g id="node1" class="node"><title>code</title>
<ellipse fill="none" stroke="black" cx="513.22" cy="-585" rx="63.8893" ry="18"/>
<text text-anchor="middle" x="513.22" y="-581.3" font-family="Times,serif" font-size="14.00">Code fragment</text>
</g>
<!-- Function -->
<g id="node2" class="node"><title>Function</title>
<ellipse fill="none" stroke="black" cx="760.151" cy="-720" rx="42.4939" ry="18"/>
<text text-anchor="middle" x="760.151" y="-716.3" font-family="Times,serif" font-size="14.00">Function</text>
</g>
<!-- code&#45;&gt;Function -->
<g id="edge1" class="edge"><title>code&#45;&gt;Function</title>
<path fill="none" stroke="black" d="M529.273,-602.567C551.026,-626.78 593.669,-670.015 639.262,-693 660.822,-703.869 686.749,-710.405 708.968,-714.315"/>
<polygon fill="black" stroke="black" points="708.455,-717.777 718.888,-715.932 709.581,-710.868 708.455,-717.777"/>
</g>
<!-- Program -->
<g id="node3" class="node"><title>Program</title>
<ellipse fill="none" stroke="black" cx="760.151" cy="-666" rx="41.6928" ry="18"/>
<text text-anchor="middle" x="760.151" y="-662.3" font-family="Times,serif" font-size="14.00">Program</text>
</g>
<!-- code&#45;&gt;Program -->
<g id="edge2" class="edge"><title>code&#45;&gt;Program</title>
<path fill="none" stroke="black" d="M545.712,-600.547C570.625,-612.366 606.545,-628.354 639.262,-639 662.662,-646.614 689.312,-652.848 711.534,-657.4"/>
<polygon fill="black" stroke="black" points="710.913,-660.845 721.405,-659.371 712.284,-653.98 710.913,-660.845"/>
</g>
<!-- Type signature -->
<g id="node4" class="node"><title>Type signature</title>
<ellipse fill="none" stroke="black" cx="760.151" cy="-612" rx="63.8893" ry="18"/>
<text text-anchor="middle" x="760.151" y="-608.3" font-family="Times,serif" font-size="14.00">Type signature</text>
</g>
<!-- code&#45;&gt;Type signature -->
<g id="edge3" class="edge"><title>code&#45;&gt;Type signature</title>
<path fill="none" stroke="black" d="M572.887,-591.467C608.203,-595.36 653.339,-600.336 690.335,-604.414"/>
<polygon fill="black" stroke="black" points="690.215,-607.922 700.539,-605.539 690.982,-600.964 690.215,-607.922"/>
</g>
<!-- Type declaration -->
<g id="node5" class="node"><title>Type declaration</title>
<ellipse fill="none" stroke="black" cx="760.151" cy="-558" rx="70.3881" ry="18"/>
<text text-anchor="middle" x="760.151" y="-554.3" font-family="Times,serif" font-size="14.00">Type declaration</text>
</g>
<!-- code&#45;&gt;Type declaration -->
<g id="edge4" class="edge"><title>code&#45;&gt;Type declaration</title>
<path fill="none" stroke="black" stroke-dasharray="5,2" d="M572.887,-578.533C606.651,-574.811 649.39,-570.099 685.411,-566.129"/>
<polygon fill="black" stroke="black" points="685.823,-569.605 695.379,-565.03 685.056,-562.647 685.823,-569.605"/>
</g>
<!-- Class declaration -->
<g id="node6" class="node"><title>Class declaration</title>
<ellipse fill="none" stroke="black" cx="760.151" cy="-504" rx="71.4873" ry="18"/>
<text text-anchor="middle" x="760.151" y="-500.3" font-family="Times,serif" font-size="14.00">Class declaration</text>
</g>
<!-- code&#45;&gt;Class declaration -->
<g id="edge5" class="edge"><title>code&#45;&gt;Class declaration</title>
<path fill="none" stroke="black" stroke-dasharray="5,2" d="M545.712,-569.453C570.625,-557.634 606.545,-541.646 639.262,-531 656.137,-525.509 674.702,-520.736 692.078,-516.794"/>
<polygon fill="black" stroke="black" points="693.14,-520.144 702.15,-514.57 691.63,-513.309 693.14,-520.144"/>
</g>
<!-- Metric -->
<g id="node7" class="node"><title>Metric</title>
<ellipse fill="none" stroke="black" cx="275.032" cy="-307" rx="34.394" ry="18"/>
<text text-anchor="middle" x="275.032" y="-303.3" font-family="Times,serif" font-size="14.00">Metric</text>
</g>
<!-- Metric&#45;&gt;code -->
<g id="edge6" class="edge"><title>Metric&#45;&gt;code</title>
<path fill="none" stroke="black" d="M290.099,-323.558C329.854,-370.351 443.227,-503.794 490.797,-559.785"/>
<polygon fill="black" stroke="black" points="488.18,-562.11 497.322,-567.465 493.515,-557.578 488.18,-562.11"/>
<text text-anchor="middle" x="372.678" y="-457.8" font-family="Times,serif" font-size="14.00">is applied to</text>
</g>
<!-- CodeMetric -->
<g id="node8" class="node"><title>CodeMetric</title>
<ellipse fill="none" stroke="black" cx="513.22" cy="-342" rx="54.6905" ry="18"/>
<text text-anchor="middle" x="513.22" y="-338.3" font-family="Times,serif" font-size="14.00">Code metric</text>
</g>
<!-- Metric&#45;&gt;CodeMetric -->
<g id="edge7" class="edge"><title>Metric&#45;&gt;CodeMetric</title>
<path fill="none" stroke="black" d="M308.377,-311.793C345.494,-317.293 407.128,-326.427 452.924,-333.213"/>
<polygon fill="black" stroke="black" points="452.621,-336.706 463.026,-334.71 453.647,-329.782 452.621,-336.706"/>
</g>
<!-- TypeMetric -->
<g id="node9" class="node"><title>TypeMetric</title>
<ellipse fill="none" stroke="black" cx="513.22" cy="-234" rx="89.0842" ry="18"/>
<text text-anchor="middle" x="513.22" y="-230.3" font-family="Times,serif" font-size="14.00">Type signature metric</text>
</g>
<!-- Metric&#45;&gt;TypeMetric -->
<g id="edge8" class="edge"><title>Metric&#45;&gt;TypeMetric</title>
<path fill="none" stroke="black" d="M304.993,-298.049C341.909,-286.639 406.605,-266.643 453.914,-252.021"/>
<polygon fill="black" stroke="black" points="455.208,-255.284 463.729,-248.987 453.141,-248.596 455.208,-255.284"/>
</g>
<!-- Lines of code -->
<g id="node10" class="node"><title>Lines of code</title>
<ellipse fill="none" stroke="black" cx="760.151" cy="-450" rx="59.2899" ry="18"/>
<text text-anchor="middle" x="760.151" y="-446.3" font-family="Times,serif" font-size="14.00">Lines of code</text>
</g>
<!-- CodeMetric&#45;&gt;Lines of code -->
<g id="edge9" class="edge"><title>CodeMetric&#45;&gt;Lines of code</title>
<path fill="none" stroke="black" d="M535.042,-358.822C558.857,-377.236 599.684,-406.352 639.262,-423 657.266,-430.573 677.725,-436.183 696.581,-440.264"/>
<polygon fill="black" stroke="black" points="696.068,-443.732 706.568,-442.32 697.479,-436.876 696.068,-443.732"/>
</g>
<!-- Cyclomatic complexity -->
<g id="node11" class="node"><title>Cyclomatic complexity</title>
<ellipse fill="none" stroke="black" cx="760.151" cy="-396" rx="94.4839" ry="18"/>
<text text-anchor="middle" x="760.151" y="-392.3" font-family="Times,serif" font-size="14.00">Cyclomatic complexity</text>
</g>
<!-- CodeMetric&#45;&gt;Cyclomatic complexity -->
<g id="edge10" class="edge"><title>CodeMetric&#45;&gt;Cyclomatic complexity</title>
<path fill="none" stroke="black" d="M559.144,-351.904C595.071,-359.825 646.123,-371.081 687.656,-380.237"/>
<polygon fill="black" stroke="black" points="686.929,-383.661 697.448,-382.396 688.436,-376.825 686.929,-383.661"/>
</g>
<!-- Branching depth -->
<g id="node12" class="node"><title>Branching depth</title>
<ellipse fill="none" stroke="black" cx="760.151" cy="-342" rx="69.5877" ry="18"/>
<text text-anchor="middle" x="760.151" y="-338.3" font-family="Times,serif" font-size="14.00">Branching depth</text>
</g>
<!-- CodeMetric&#45;&gt;Branching depth -->
<g id="edge11" class="edge"><title>CodeMetric&#45;&gt;Branching depth</title>
<path fill="none" stroke="black" d="M567.971,-342C600.923,-342 643.688,-342 680.413,-342"/>
<polygon fill="black" stroke="black" points="680.598,-345.5 690.598,-342 680.598,-338.5 680.598,-345.5"/>
</g>
<!-- Expression tree nodes -->
<g id="node13" class="node"><title>Expression tree nodes</title>
<ellipse fill="none" stroke="black" cx="760.151" cy="-288" rx="88.2844" ry="18"/>
<text text-anchor="middle" x="760.151" y="-284.3" font-family="Times,serif" font-size="14.00">Expression tree nodes</text>
</g>
<!-- CodeMetric&#45;&gt;Expression tree nodes -->
<g id="edge12" class="edge"><title>CodeMetric&#45;&gt;Expression tree nodes</title>
<path fill="none" stroke="black" stroke-dasharray="5,2" d="M559.144,-332.096C595.583,-324.062 647.58,-312.598 689.424,-303.373"/>
<polygon fill="black" stroke="black" points="690.266,-306.771 699.278,-301.2 688.759,-299.935 690.266,-306.771"/>
</g>
<!-- Type tree nodes -->
<g id="node14" class="node"><title>Type tree nodes</title>
<ellipse fill="none" stroke="black" cx="760.151" cy="-234" rx="67.6881" ry="18"/>
<text text-anchor="middle" x="760.151" y="-230.3" font-family="Times,serif" font-size="14.00">Type tree nodes</text>
</g>
<!-- TypeMetric&#45;&gt;Type tree nodes -->
<g id="edge13" class="edge"><title>TypeMetric&#45;&gt;Type tree nodes</title>
<path fill="none" stroke="black" d="M602.3,-234C628.336,-234 656.629,-234 681.926,-234"/>
<polygon fill="black" stroke="black" points="682.197,-237.5 692.197,-234 682.197,-230.5 682.197,-237.5"/>
</g>
<!-- Number of function arguments -->
<g id="node15" class="node"><title>Number of function arguments</title>
<ellipse fill="none" stroke="black" cx="760.151" cy="-180" rx="120.779" ry="18"/>
<text text-anchor="middle" x="760.151" y="-176.3" font-family="Times,serif" font-size="14.00">Number of function arguments</text>
</g>
<!-- TypeMetric&#45;&gt;Number of function arguments -->
<g id="edge14" class="edge"><title>TypeMetric&#45;&gt;Number of function arguments</title>
<path fill="none" stroke="black" d="M574.137,-220.79C606.491,-213.657 646.806,-204.769 681.537,-197.111"/>
<polygon fill="black" stroke="black" points="682.635,-200.454 691.646,-194.883 681.127,-193.618 682.635,-200.454"/>
</g>
<!-- Criterion -->
<g id="node16" class="node"><title>Criterion</title>
<ellipse fill="none" stroke="black" cx="79.9429" cy="-276" rx="79.8859" ry="18"/>
<text text-anchor="middle" x="79.9429" y="-272.3" font-family="Times,serif" font-size="14.00">Validation criterion</text>
</g>
<!-- Criterion&#45;&gt;Metric -->
<g id="edge15" class="edge"><title>Criterion&#45;&gt;Metric</title>
<path fill="none" stroke="black" d="M145.507,-286.366C173.933,-290.929 206.528,-296.162 231.78,-300.217"/>
<polygon fill="black" stroke="black" points="231.341,-303.691 241.769,-301.82 232.451,-296.779 231.341,-303.691"/>
<text text-anchor="middle" x="194.386" y="-299.8" font-family="Times,serif" font-size="14.00">uses</text>
</g>
<!-- Threshold -->
<g id="node17" class="node"><title>Threshold</title>
<ellipse fill="none" stroke="black" cx="275.032" cy="-240" rx="46.2923" ry="18"/>
<text text-anchor="middle" x="275.032" y="-236.3" font-family="Times,serif" font-size="14.00">Threshold</text>
</g>
<!-- Criterion&#45;&gt;Threshold -->
<g id="edge16" class="edge"><title>Criterion&#45;&gt;Threshold</title>
<path fill="none" stroke="black" d="M142.037,-264.609C168.159,-259.739 198.302,-254.119 223.182,-249.481"/>
<polygon fill="black" stroke="black" points="223.952,-252.897 233.142,-247.624 222.669,-246.016 223.952,-252.897"/>
<text text-anchor="middle" x="194.386" y="-259.8" font-family="Times,serif" font-size="14.00">meets</text>
</g>
<!-- Message -->
<g id="node18" class="node"><title>Message</title>
<ellipse fill="none" stroke="black" cx="513.22" cy="-99" rx="42.4939" ry="18"/>
<text text-anchor="middle" x="513.22" y="-95.3" font-family="Times,serif" font-size="14.00">Message</text>
</g>
<!-- Threshold&#45;&gt;Message -->
<g id="edge17" class="edge"><title>Threshold&#45;&gt;Message</title>
<path fill="none" stroke="black" d="M301.308,-224.911C344.239,-199.282 431.379,-147.261 479.116,-118.762"/>
<polygon fill="black" stroke="black" points="481.041,-121.69 487.833,-113.558 477.453,-115.679 481.041,-121.69"/>
<text text-anchor="middle" x="372.678" y="-205.8" font-family="Times,serif" font-size="14.00">displays</text>
</g>
<!-- Debug -->
<g id="node19" class="node"><title>Debug</title>
<ellipse fill="none" stroke="black" cx="760.151" cy="-126" rx="34.394" ry="18"/>
<text text-anchor="middle" x="760.151" y="-122.3" font-family="Times,serif" font-size="14.00">Debug</text>
</g>
<!-- Message&#45;&gt;Debug -->
<g id="edge18" class="edge"><title>Message&#45;&gt;Debug</title>
<path fill="none" stroke="black" d="M554.391,-103.428C598.836,-108.328 670.197,-116.194 715.858,-121.228"/>
<polygon fill="black" stroke="black" points="715.712,-124.733 726.036,-122.35 716.479,-117.775 715.712,-124.733"/>
</g>
<!-- Info -->
<g id="node20" class="node"><title>Info</title>
<ellipse fill="none" stroke="black" cx="760.151" cy="-72" rx="27" ry="18"/>
<text text-anchor="middle" x="760.151" y="-68.3" font-family="Times,serif" font-size="14.00">Info</text>
</g>
<!-- Message&#45;&gt;Info -->
<g id="edge19" class="edge"><title>Message&#45;&gt;Info</title>
<path fill="none" stroke="black" d="M554.391,-94.5717C601.256,-89.4056 678.046,-80.9406 723.077,-75.9766"/>
<polygon fill="black" stroke="black" points="723.707,-79.4284 733.264,-74.8537 722.94,-72.4706 723.707,-79.4284"/>
</g>
<!-- Warning -->
<g id="node21" class="node"><title>Warning</title>
<ellipse fill="none" stroke="black" cx="760.151" cy="-18" rx="42.4939" ry="18"/>
<text text-anchor="middle" x="760.151" y="-14.3" font-family="Times,serif" font-size="14.00">Warning</text>
</g>
<!-- Message&#45;&gt;Warning -->
<g id="edge20" class="edge"><title>Message&#45;&gt;Warning</title>
<path fill="none" stroke="black" d="M541.461,-85.4798C566.417,-73.5205 604.633,-56.2679 639.262,-45 662.486,-37.4431 688.911,-31.246 711.032,-26.7034"/>
<polygon fill="black" stroke="black" points="711.747,-30.1297 720.865,-24.7338 710.373,-23.266 711.747,-30.1297"/>
</g>
</g>
</svg>
