<?xml version="1.0" encoding="UTF-8" standalone="no"?>
<!DOCTYPE svg PUBLIC "-//W3C//DTD SVG 1.1//EN"
 "http://www.w3.org/Graphics/SVG/1.1/DTD/svg11.dtd">
<!-- Generated by graphviz version 2.38.0 (20140413.2041)
 -->
<!-- Title: Concepts Pages: 1 -->
<svg width="785pt" height="476pt"
 viewBox="0.00 0.00 785.05 476.00" xmlns="http://www.w3.org/2000/svg" xmlns:xlink="http://www.w3.org/1999/xlink">
<g id="graph0" class="graph" transform="scale(1 1) rotate(0) translate(4 472)">
<title>Concepts</title>
<polygon fill="white" stroke="none" points="-4,4 -4,-472 781.05,-472 781.05,4 -4,4"/>
<!-- code -->
<g id="node1" class="node"><title>code</title>
<ellipse fill="none" stroke="black" cx="518.419" cy="-396" rx="63.8893" ry="18"/>
<text text-anchor="middle" x="518.419" y="-392.3" font-family="Times,serif" font-size="14.00">Code fragment</text>
</g>
<!-- Function -->
<g id="node2" class="node"><title>Function</title>
<ellipse fill="none" stroke="black" cx="713.355" cy="-450" rx="42.4939" ry="18"/>
<text text-anchor="middle" x="713.355" y="-446.3" font-family="Times,serif" font-size="14.00">Function</text>
</g>
<!-- code&#45;&gt;Function -->
<g id="edge1" class="edge"><title>code&#45;&gt;Function</title>
<path fill="none" stroke="black" d="M564.168,-408.524C595.306,-417.24 636.653,-428.812 667.758,-437.518"/>
<polygon fill="black" stroke="black" points="666.899,-440.912 677.472,-440.237 668.785,-434.171 666.899,-440.912"/>
</g>
<!-- Program -->
<g id="node3" class="node"><title>Program</title>
<ellipse fill="none" stroke="black" cx="713.355" cy="-396" rx="41.6928" ry="18"/>
<text text-anchor="middle" x="713.355" y="-392.3" font-family="Times,serif" font-size="14.00">Program</text>
</g>
<!-- code&#45;&gt;Program -->
<g id="edge2" class="edge"><title>code&#45;&gt;Program</title>
<path fill="none" stroke="black" d="M582.327,-396C608.018,-396 637.336,-396 661.623,-396"/>
<polygon fill="black" stroke="black" points="661.698,-399.5 671.698,-396 661.698,-392.5 661.698,-399.5"/>
</g>
<!-- Type signature -->
<g id="node4" class="node"><title>Type signature</title>
<ellipse fill="none" stroke="black" cx="713.355" cy="-342" rx="63.8893" ry="18"/>
<text text-anchor="middle" x="713.355" y="-338.3" font-family="Times,serif" font-size="14.00">Type signature</text>
</g>
<!-- code&#45;&gt;Type signature -->
<g id="edge3" class="edge"><title>code&#45;&gt;Type signature</title>
<path fill="none" stroke="black" d="M564.168,-383.476C592.071,-375.666 628.171,-365.562 657.754,-357.282"/>
<polygon fill="black" stroke="black" points="658.829,-360.616 667.516,-354.55 656.943,-353.875 658.829,-360.616"/>
</g>
<!-- Metric -->
<g id="node5" class="node"><title>Metric</title>
<ellipse fill="none" stroke="black" cx="275.032" cy="-234" rx="34.394" ry="18"/>
<text text-anchor="middle" x="275.032" y="-230.3" font-family="Times,serif" font-size="14.00">Metric</text>
</g>
<!-- Metric&#45;&gt;code -->
<g id="edge4" class="edge"><title>Metric&#45;&gt;code</title>
<path fill="none" stroke="black" d="M289.165,-250.681C312.868,-279.572 365.792,-338.73 424.178,-369 434.361,-374.28 445.72,-378.66 456.91,-382.247"/>
<polygon fill="black" stroke="black" points="456.082,-385.653 466.667,-385.197 458.108,-378.952 456.082,-385.653"/>
<text text-anchor="middle" x="372.678" y="-361.8" font-family="Times,serif" font-size="14.00">is applied to</text>
</g>
<!-- Lines of code -->
<g id="node6" class="node"><title>Lines of code</title>
<ellipse fill="none" stroke="black" cx="518.419" cy="-342" rx="59.2899" ry="18"/>
<text text-anchor="middle" x="518.419" y="-338.3" font-family="Times,serif" font-size="14.00">Lines of code</text>
</g>
<!-- Metric&#45;&gt;Lines of code -->
<g id="edge5" class="edge"><title>Metric&#45;&gt;Lines of code</title>
<path fill="none" stroke="black" d="M299.391,-247.021C311.286,-253.633 325.986,-261.775 339.178,-269 376.852,-289.634 384.431,-298.711 424.178,-315 436.113,-319.892 449.246,-324.272 461.795,-328.009"/>
<polygon fill="black" stroke="black" points="461.12,-331.457 471.698,-330.866 463.06,-324.731 461.12,-331.457"/>
</g>
<!-- Cyclomatic complexity -->
<g id="node7" class="node"><title>Cyclomatic complexity</title>
<ellipse fill="none" stroke="black" cx="518.419" cy="-288" rx="94.4839" ry="18"/>
<text text-anchor="middle" x="518.419" y="-284.3" font-family="Times,serif" font-size="14.00">Cyclomatic complexity</text>
</g>
<!-- Metric&#45;&gt;Cyclomatic complexity -->
<g id="edge6" class="edge"><title>Metric&#45;&gt;Cyclomatic complexity</title>
<path fill="none" stroke="black" d="M307.095,-240.949C342.09,-248.778 400.118,-261.759 446.368,-272.105"/>
<polygon fill="black" stroke="black" points="445.822,-275.57 456.345,-274.337 447.35,-268.739 445.822,-275.57"/>
</g>
<!-- Branching depth -->
<g id="node8" class="node"><title>Branching depth</title>
<ellipse fill="none" stroke="black" cx="518.419" cy="-234" rx="69.5877" ry="18"/>
<text text-anchor="middle" x="518.419" y="-230.3" font-family="Times,serif" font-size="14.00">Branching depth</text>
</g>
<!-- Metric&#45;&gt;Branching depth -->
<g id="edge7" class="edge"><title>Metric&#45;&gt;Branching depth</title>
<path fill="none" stroke="black" d="M309.596,-234C342.766,-234 394.737,-234 438.408,-234"/>
<polygon fill="black" stroke="black" points="438.449,-237.5 448.449,-234 438.449,-230.5 438.449,-237.5"/>
</g>
<!-- Type tree nodes -->
<g id="node9" class="node"><title>Type tree nodes</title>
<ellipse fill="none" stroke="black" cx="518.419" cy="-180" rx="67.6881" ry="18"/>
<text text-anchor="middle" x="518.419" y="-176.3" font-family="Times,serif" font-size="14.00">Type tree nodes</text>
</g>
<!-- Metric&#45;&gt;Type tree nodes -->
<g id="edge8" class="edge"><title>Metric&#45;&gt;Type tree nodes</title>
<path fill="none" stroke="black" d="M307.095,-227.051C344.66,-218.647 408.765,-204.307 456.352,-193.661"/>
<polygon fill="black" stroke="black" points="457.246,-197.048 466.241,-191.449 455.718,-190.217 457.246,-197.048"/>
</g>
<!-- Expression tree nodes -->
<g id="node10" class="node"><title>Expression tree nodes</title>
<ellipse fill="none" stroke="black" cx="518.419" cy="-126" rx="88.2844" ry="18"/>
<text text-anchor="middle" x="518.419" y="-122.3" font-family="Times,serif" font-size="14.00">Expression tree nodes</text>
</g>
<!-- Metric&#45;&gt;Expression tree nodes -->
<g id="edge9" class="edge"><title>Metric&#45;&gt;Expression tree nodes</title>
<path fill="none" stroke="black" d="M297.868,-220.074C326.122,-202.527 377.295,-172.332 424.178,-153 433.081,-149.329 442.657,-145.951 452.16,-142.918"/>
<polygon fill="black" stroke="black" points="453.479,-146.174 462.006,-139.886 451.418,-139.485 453.479,-146.174"/>
</g>
<!-- Criterion -->
<g id="node11" class="node"><title>Criterion</title>
<ellipse fill="none" stroke="black" cx="79.9429" cy="-191" rx="79.8859" ry="18"/>
<text text-anchor="middle" x="79.9429" y="-187.3" font-family="Times,serif" font-size="14.00">Validation criterion</text>
</g>
<!-- Criterion&#45;&gt;Metric -->
<g id="edge10" class="edge"><title>Criterion&#45;&gt;Metric</title>
<path fill="none" stroke="black" d="M137.311,-203.553C168.044,-210.397 205.388,-218.713 233.277,-224.924"/>
<polygon fill="black" stroke="black" points="232.572,-228.353 243.094,-227.11 234.094,-221.52 232.572,-228.353"/>
<text text-anchor="middle" x="194.386" y="-221.8" font-family="Times,serif" font-size="14.00">uses</text>
</g>
<!-- Threshold -->
<g id="node12" class="node"><title>Threshold</title>
<ellipse fill="none" stroke="black" cx="275.032" cy="-132" rx="46.2923" ry="18"/>
<text text-anchor="middle" x="275.032" y="-128.3" font-family="Times,serif" font-size="14.00">Threshold</text>
</g>
<!-- Criterion&#45;&gt;Threshold -->
<g id="edge11" class="edge"><title>Criterion&#45;&gt;Threshold</title>
<path fill="none" stroke="black" d="M128.178,-176.567C158.672,-167.249 198.137,-155.19 228.324,-145.966"/>
<polygon fill="black" stroke="black" points="229.639,-149.224 238.18,-142.955 227.594,-142.53 229.639,-149.224"/>
<text text-anchor="middle" x="194.386" y="-162.8" font-family="Times,serif" font-size="14.00">meets</text>
</g>
<!-- Message -->
<g id="node13" class="node"><title>Message</title>
<ellipse fill="none" stroke="black" cx="518.419" cy="-72" rx="42.4939" ry="18"/>
<text text-anchor="middle" x="518.419" y="-68.3" font-family="Times,serif" font-size="14.00">Message</text>
</g>
<!-- Threshold&#45;&gt;Message -->
<g id="edge12" class="edge"><title>Threshold&#45;&gt;Message</title>
<path fill="none" stroke="black" d="M299.069,-116.543C310.639,-109.494 325.151,-101.691 339.178,-97 380.445,-83.1992 429.557,-77.0153 465.769,-74.2452"/>
<polygon fill="black" stroke="black" points="466.365,-77.7121 476.095,-73.5206 465.875,-70.7292 466.365,-77.7121"/>
<text text-anchor="middle" x="372.678" y="-100.8" font-family="Times,serif" font-size="14.00">displays</text>
</g>
<!-- Debug -->
<g id="node14" class="node"><title>Debug</title>
<ellipse fill="none" stroke="black" cx="713.355" cy="-126" rx="34.394" ry="18"/>
<text text-anchor="middle" x="713.355" y="-122.3" font-family="Times,serif" font-size="14.00">Debug</text>
</g>
<!-- Message&#45;&gt;Debug -->
<g id="edge13" class="edge"><title>Message&#45;&gt;Debug</title>
<path fill="none" stroke="black" d="M554.359,-81.779C587.765,-91.1289 638.066,-105.208 672.9,-114.957"/>
<polygon fill="black" stroke="black" points="672.159,-118.384 682.732,-117.709 674.046,-111.643 672.159,-118.384"/>
</g>
<!-- Info -->
<g id="node15" class="node"><title>Info</title>
<ellipse fill="none" stroke="black" cx="713.355" cy="-72" rx="27" ry="18"/>
<text text-anchor="middle" x="713.355" y="-68.3" font-family="Times,serif" font-size="14.00">Info</text>
</g>
<!-- Message&#45;&gt;Info -->
<g id="edge14" class="edge"><title>Message&#45;&gt;Info</title>
<path fill="none" stroke="black" d="M560.809,-72C595.079,-72 643.294,-72 676.072,-72"/>
<polygon fill="black" stroke="black" points="676.135,-75.5001 686.135,-72 676.135,-68.5001 676.135,-75.5001"/>
</g>
<!-- Warning -->
<g id="node16" class="node"><title>Warning</title>
<ellipse fill="none" stroke="black" cx="713.355" cy="-18" rx="42.4939" ry="18"/>
<text text-anchor="middle" x="713.355" y="-14.3" font-family="Times,serif" font-size="14.00">Warning</text>
</g>
<!-- Message&#45;&gt;Warning -->
<g id="edge15" class="edge"><title>Message&#45;&gt;Warning</title>
<path fill="none" stroke="black" d="M554.359,-62.221C586.183,-53.3137 633.342,-40.1147 667.853,-30.4556"/>
<polygon fill="black" stroke="black" points="668.989,-33.7721 677.676,-27.7062 667.103,-27.0311 668.989,-33.7721"/>
</g>
</g>
</svg>
