<?xml version="1.0" encoding="UTF-8" standalone="no"?>
<!DOCTYPE svg PUBLIC "-//W3C//DTD SVG 1.1//EN"
 "http://www.w3.org/Graphics/SVG/1.1/DTD/svg11.dtd">
<!-- Generated by graphviz version 2.38.0 (20140413.2041)
 -->
<!-- Title: Concepts Pages: 1 -->
<svg width="1034pt" height="773pt"
 viewBox="0.00 0.00 1033.93 773.00" xmlns="http://www.w3.org/2000/svg" xmlns:xlink="http://www.w3.org/1999/xlink">
<g id="graph0" class="graph" transform="scale(1 1) rotate(0) translate(4 769)">
<title>Concepts</title>
<polygon fill="white" stroke="none" points="-4,4 -4,-769 1029.93,-769 1029.93,4 -4,4"/>
<!-- code -->
<g id="node1" class="node"><title>code</title>
<ellipse fill="none" stroke="black" cx="495.671" cy="-612" rx="63.8893" ry="18"/>
<text text-anchor="middle" x="495.671" y="-608.3" font-family="Times,serif" font-size="14.00">Code fragment</text>
</g>
<!-- expr -->
<g id="node2" class="node"><title>expr</title>
<ellipse fill="none" stroke="black" cx="725.054" cy="-693" rx="70.6878" ry="18"/>
<text text-anchor="middle" x="725.054" y="-689.3" font-family="Times,serif" font-size="14.00">Implementations</text>
</g>
<!-- code&#45;&gt;expr -->
<g id="edge1" class="edge"><title>code&#45;&gt;expr</title>
<path fill="none" stroke="black" d="M536.019,-626.017C574.028,-639.557 631.778,-660.129 673.246,-674.901"/>
<polygon fill="black" stroke="black" points="672.292,-678.276 682.887,-678.335 674.641,-671.682 672.292,-678.276"/>
</g>
<!-- types -->
<g id="node5" class="node"><title>types</title>
<ellipse fill="none" stroke="black" cx="725.054" cy="-612" rx="32.4942" ry="18"/>
<text text-anchor="middle" x="725.054" y="-608.3" font-family="Times,serif" font-size="14.00">Types</text>
</g>
<!-- code&#45;&gt;types -->
<g id="edge4" class="edge"><title>code&#45;&gt;types</title>
<path fill="none" stroke="black" d="M559.407,-612C598.481,-612 647.681,-612 682.078,-612"/>
<polygon fill="black" stroke="black" points="682.251,-615.5 692.251,-612 682.251,-608.5 682.251,-615.5"/>
</g>
<!-- Function -->
<g id="node3" class="node"><title>Function</title>
<ellipse fill="none" stroke="black" cx="954.437" cy="-747" rx="42.4939" ry="18"/>
<text text-anchor="middle" x="954.437" y="-743.3" font-family="Times,serif" font-size="14.00">Function</text>
</g>
<!-- expr&#45;&gt;Function -->
<g id="edge2" class="edge"><title>expr&#45;&gt;Function</title>
<path fill="none" stroke="black" d="M777.367,-705.186C816.279,-714.427 869.31,-727.021 906.977,-735.966"/>
<polygon fill="black" stroke="black" points="906.63,-739.481 917.169,-738.387 908.248,-732.671 906.63,-739.481"/>
</g>
<!-- Program -->
<g id="node4" class="node"><title>Program</title>
<ellipse fill="none" stroke="black" cx="954.437" cy="-693" rx="41.6928" ry="18"/>
<text text-anchor="middle" x="954.437" y="-689.3" font-family="Times,serif" font-size="14.00">Program</text>
</g>
<!-- expr&#45;&gt;Program -->
<g id="edge3" class="edge"><title>expr&#45;&gt;Program</title>
<path fill="none" stroke="black" d="M796.132,-693C830.482,-693 871.093,-693 902.447,-693"/>
<polygon fill="black" stroke="black" points="902.703,-696.5 912.703,-693 902.703,-689.5 902.703,-696.5"/>
</g>
<!-- Type signature -->
<g id="node6" class="node"><title>Type signature</title>
<ellipse fill="none" stroke="black" cx="954.437" cy="-639" rx="63.8893" ry="18"/>
<text text-anchor="middle" x="954.437" y="-635.3" font-family="Times,serif" font-size="14.00">Type signature</text>
</g>
<!-- types&#45;&gt;Type signature -->
<g id="edge5" class="edge"><title>types&#45;&gt;Type signature</title>
<path fill="none" stroke="black" d="M757.194,-615.698C790.074,-619.602 842.94,-625.879 885.522,-630.936"/>
<polygon fill="black" stroke="black" points="885.206,-634.423 895.549,-632.126 886.031,-627.471 885.206,-634.423"/>
</g>
<!-- TypeDecl -->
<g id="node7" class="node"><title>TypeDecl</title>
<ellipse fill="none" stroke="black" stroke-dasharray="5,2" cx="954.437" cy="-585" rx="70.3881" ry="18"/>
<text text-anchor="middle" x="954.437" y="-581.3" font-family="Times,serif" font-size="14.00">Type declaration</text>
</g>
<!-- types&#45;&gt;TypeDecl -->
<g id="edge6" class="edge"><title>types&#45;&gt;TypeDecl</title>
<path fill="none" stroke="black" d="M757.194,-608.302C788.769,-604.553 838.774,-598.615 880.403,-593.672"/>
<polygon fill="black" stroke="black" points="880.997,-597.126 890.515,-592.472 880.172,-590.175 880.997,-597.126"/>
</g>
<!-- ClassDecl -->
<g id="node8" class="node"><title>ClassDecl</title>
<ellipse fill="none" stroke="black" stroke-dasharray="5,2" cx="954.437" cy="-531" rx="71.4873" ry="18"/>
<text text-anchor="middle" x="954.437" y="-527.3" font-family="Times,serif" font-size="14.00">Class declaration</text>
</g>
<!-- types&#45;&gt;ClassDecl -->
<g id="edge7" class="edge"><title>types&#45;&gt;ClassDecl</title>
<path fill="none" stroke="black" d="M756.963,-608.568C781.851,-604.985 817.286,-598.003 845.943,-585 864.482,-576.589 865.06,-567.726 882.943,-558 888.61,-554.918 894.704,-552.024 900.85,-549.358"/>
<polygon fill="black" stroke="black" points="902.598,-552.422 910.499,-545.363 899.921,-545.955 902.598,-552.422"/>
</g>
<!-- Metric -->
<g id="node9" class="node"><title>Metric</title>
<ellipse fill="none" stroke="black" cx="275.032" cy="-315" rx="34.394" ry="18"/>
<text text-anchor="middle" x="275.032" y="-311.3" font-family="Times,serif" font-size="14.00">Metric</text>
</g>
<!-- Metric&#45;&gt;code -->
<g id="edge8" class="edge"><title>Metric&#45;&gt;code</title>
<path fill="none" stroke="black" d="M288.413,-331.819C324.834,-381.293 431.79,-526.583 475.613,-586.111"/>
<polygon fill="black" stroke="black" points="472.858,-588.272 481.605,-594.251 478.495,-584.122 472.858,-588.272"/>
<text text-anchor="middle" x="372.678" y="-494.8" font-family="Times,serif" font-size="14.00">is applied to</text>
</g>
<!-- CodeMetric -->
<g id="node10" class="node"><title>CodeMetric</title>
<ellipse fill="none" stroke="black" cx="495.671" cy="-423" rx="54.6905" ry="18"/>
<text text-anchor="middle" x="495.671" y="-419.3" font-family="Times,serif" font-size="14.00">Code metric</text>
</g>
<!-- Metric&#45;&gt;CodeMetric -->
<g id="edge9" class="edge"><title>Metric&#45;&gt;CodeMetric</title>
<path fill="none" stroke="black" d="M300.687,-327.179C338.326,-345.771 410.467,-381.406 455.378,-403.59"/>
<polygon fill="black" stroke="black" points="454.01,-406.818 464.526,-408.109 457.11,-400.542 454.01,-406.818"/>
</g>
<!-- TypeMetric -->
<g id="node11" class="node"><title>TypeMetric</title>
<ellipse fill="none" stroke="black" cx="495.671" cy="-234" rx="53.8905" ry="18"/>
<text text-anchor="middle" x="495.671" y="-230.3" font-family="Times,serif" font-size="14.00">Type metric</text>
</g>
<!-- Metric&#45;&gt;TypeMetric -->
<g id="edge10" class="edge"><title>Metric&#45;&gt;TypeMetric</title>
<path fill="none" stroke="black" d="M303.723,-304.741C340.365,-291.166 405.434,-267.06 449.306,-250.807"/>
<polygon fill="black" stroke="black" points="450.714,-254.018 458.875,-247.261 448.282,-247.453 450.714,-254.018"/>
</g>
<!-- CommentMetric -->
<g id="node12" class="node"><title>CommentMetric</title>
<ellipse fill="none" stroke="black" cx="495.671" cy="-315" rx="71.4873" ry="18"/>
<text text-anchor="middle" x="495.671" y="-311.3" font-family="Times,serif" font-size="14.00">Comment metric</text>
</g>
<!-- Metric&#45;&gt;CommentMetric -->
<g id="edge11" class="edge"><title>Metric&#45;&gt;CommentMetric</title>
<path fill="none" stroke="black" d="M309.715,-315C337.416,-315 377.827,-315 413.814,-315"/>
<polygon fill="black" stroke="black" points="413.833,-318.5 423.833,-315 413.833,-311.5 413.833,-318.5"/>
</g>
<!-- Lines of code -->
<g id="node13" class="node"><title>Lines of code</title>
<ellipse fill="none" stroke="black" cx="725.054" cy="-558" rx="59.2899" ry="18"/>
<text text-anchor="middle" x="725.054" y="-554.3" font-family="Times,serif" font-size="14.00">Lines of code</text>
</g>
<!-- CodeMetric&#45;&gt;Lines of code -->
<g id="edge12" class="edge"><title>CodeMetric&#45;&gt;Lines of code</title>
<path fill="none" stroke="black" d="M509.048,-440.628C527.078,-464.913 562.946,-508.233 604.165,-531 620.866,-540.225 640.529,-546.299 659.047,-550.299"/>
<polygon fill="black" stroke="black" points="658.405,-553.74 668.896,-552.261 659.772,-546.875 658.405,-553.74"/>
</g>
<!-- Cyclomatic complexity -->
<g id="node14" class="node"><title>Cyclomatic complexity</title>
<ellipse fill="none" stroke="black" cx="725.054" cy="-504" rx="94.4839" ry="18"/>
<text text-anchor="middle" x="725.054" y="-500.3" font-family="Times,serif" font-size="14.00">Cyclomatic complexity</text>
</g>
<!-- CodeMetric&#45;&gt;Cyclomatic complexity -->
<g id="edge13" class="edge"><title>CodeMetric&#45;&gt;Cyclomatic complexity</title>
<path fill="none" stroke="black" d="M523.253,-438.654C544.529,-450.611 575.455,-466.73 604.165,-477 617.549,-481.788 632.087,-485.912 646.272,-489.394"/>
<polygon fill="black" stroke="black" points="645.479,-492.803 656.017,-491.702 647.093,-485.992 645.479,-492.803"/>
</g>
<!-- Branching depth -->
<g id="node15" class="node"><title>Branching depth</title>
<ellipse fill="none" stroke="black" cx="725.054" cy="-450" rx="69.5877" ry="18"/>
<text text-anchor="middle" x="725.054" y="-446.3" font-family="Times,serif" font-size="14.00">Branching depth</text>
</g>
<!-- CodeMetric&#45;&gt;Branching depth -->
<g id="edge14" class="edge"><title>CodeMetric&#45;&gt;Branching depth</title>
<path fill="none" stroke="black" d="M547.417,-429.026C577.902,-432.646 617.204,-437.312 650.992,-441.324"/>
<polygon fill="black" stroke="black" points="650.942,-444.843 661.285,-442.547 651.768,-437.892 650.942,-444.843"/>
</g>
<!-- ExprNodes -->
<g id="node16" class="node"><title>ExprNodes</title>
<ellipse fill="none" stroke="black" stroke-dasharray="5,2" cx="725.054" cy="-396" rx="88.2844" ry="18"/>
<text text-anchor="middle" x="725.054" y="-392.3" font-family="Times,serif" font-size="14.00">Expression tree nodes</text>
</g>
<!-- CodeMetric&#45;&gt;ExprNodes -->
<g id="edge15" class="edge"><title>CodeMetric&#45;&gt;ExprNodes</title>
<path fill="none" stroke="black" d="M547.417,-416.974C574.112,-413.805 607.566,-409.832 638.16,-406.199"/>
<polygon fill="black" stroke="black" points="638.894,-409.637 648.411,-404.982 638.068,-402.686 638.894,-409.637"/>
</g>
<!-- CodeCommentRatio -->
<g id="node17" class="node"><title>CodeCommentRatio</title>
<ellipse fill="none" stroke="black" cx="725.054" cy="-342" rx="97.4827" ry="18"/>
<text text-anchor="middle" x="725.054" y="-338.3" font-family="Times,serif" font-size="14.00">Code&#45;to&#45;comments ratio</text>
</g>
<!-- CodeMetric&#45;&gt;CodeCommentRatio -->
<g id="edge16" class="edge"><title>CodeMetric&#45;&gt;CodeCommentRatio</title>
<path fill="none" stroke="black" d="M523.253,-407.346C544.529,-395.389 575.455,-379.27 604.165,-369 617.097,-364.374 631.107,-360.367 644.834,-356.961"/>
<polygon fill="black" stroke="black" points="645.848,-360.317 654.76,-354.586 644.22,-353.509 645.848,-360.317"/>
</g>
<!-- Type tree nodes -->
<g id="node18" class="node"><title>Type tree nodes</title>
<ellipse fill="none" stroke="black" cx="725.054" cy="-234" rx="67.6881" ry="18"/>
<text text-anchor="middle" x="725.054" y="-230.3" font-family="Times,serif" font-size="14.00">Type tree nodes</text>
</g>
<!-- TypeMetric&#45;&gt;Type tree nodes -->
<g id="edge17" class="edge"><title>TypeMetric&#45;&gt;Type tree nodes</title>
<path fill="none" stroke="black" d="M549.696,-234C578.589,-234 614.875,-234 646.853,-234"/>
<polygon fill="black" stroke="black" points="647.069,-237.5 657.069,-234 647.069,-230.5 647.069,-237.5"/>
</g>
<!-- Number of function arguments -->
<g id="node19" class="node"><title>Number of function arguments</title>
<ellipse fill="none" stroke="black" cx="725.054" cy="-180" rx="120.779" ry="18"/>
<text text-anchor="middle" x="725.054" y="-176.3" font-family="Times,serif" font-size="14.00">Number of function arguments</text>
</g>
<!-- TypeMetric&#45;&gt;Number of function arguments -->
<g id="edge18" class="edge"><title>TypeMetric&#45;&gt;Number of function arguments</title>
<path fill="none" stroke="black" d="M538.988,-223.116C558.761,-218.096 582.639,-212.127 604.165,-207 617.776,-203.758 632.282,-200.406 646.33,-197.212"/>
<polygon fill="black" stroke="black" points="647.48,-200.54 656.46,-194.918 645.934,-193.713 647.48,-200.54"/>
</g>
<!-- CommentMetric&#45;&gt;CodeCommentRatio -->
<g id="edge20" class="edge"><title>CommentMetric&#45;&gt;CodeCommentRatio</title>
<path fill="none" stroke="black" d="M560.615,-322.593C582.913,-325.241 608.391,-328.266 632.489,-331.127"/>
<polygon fill="black" stroke="black" points="632.376,-334.638 642.719,-332.342 633.201,-327.687 632.376,-334.638"/>
</g>
<!-- FleschComments -->
<g id="node20" class="node"><title>FleschComments</title>
<ellipse fill="none" stroke="black" stroke-dasharray="5,2" cx="725.054" cy="-288" rx="117.779" ry="18"/>
<text text-anchor="middle" x="725.054" y="-284.3" font-family="Times,serif" font-size="14.00">Fleisch&#45;Kincaid on comments</text>
</g>
<!-- CommentMetric&#45;&gt;FleschComments -->
<g id="edge19" class="edge"><title>CommentMetric&#45;&gt;FleschComments</title>
<path fill="none" stroke="black" d="M560.615,-307.407C579.467,-305.169 600.592,-302.66 621.234,-300.209"/>
<polygon fill="black" stroke="black" points="621.799,-303.667 631.317,-299.012 620.974,-296.716 621.799,-303.667"/>
</g>
<!-- Criterion -->
<g id="node21" class="node"><title>Criterion</title>
<ellipse fill="none" stroke="black" cx="79.9429" cy="-269" rx="79.8859" ry="18"/>
<text text-anchor="middle" x="79.9429" y="-265.3" font-family="Times,serif" font-size="14.00">Validation criterion</text>
</g>
<!-- Criterion&#45;&gt;Metric -->
<g id="edge21" class="edge"><title>Criterion&#45;&gt;Metric</title>
<path fill="none" stroke="black" d="M135.5,-281.997C166.588,-289.403 204.89,-298.528 233.335,-305.305"/>
<polygon fill="black" stroke="black" points="232.798,-308.775 243.337,-307.687 234.42,-301.965 232.798,-308.775"/>
<text text-anchor="middle" x="194.386" y="-302.8" font-family="Times,serif" font-size="14.00">uses</text>
</g>
<!-- Threshold -->
<g id="node22" class="node"><title>Threshold</title>
<ellipse fill="none" stroke="black" cx="275.032" cy="-207" rx="46.2923" ry="18"/>
<text text-anchor="middle" x="275.032" y="-203.3" font-family="Times,serif" font-size="14.00">Threshold</text>
</g>
<!-- Criterion&#45;&gt;Threshold -->
<g id="edge22" class="edge"><title>Criterion&#45;&gt;Threshold</title>
<path fill="none" stroke="black" d="M126.702,-254.307C157.697,-244.355 198.453,-231.268 229.241,-221.382"/>
<polygon fill="black" stroke="black" points="230.411,-224.683 238.862,-218.293 228.271,-218.018 230.411,-224.683"/>
<text text-anchor="middle" x="194.386" y="-240.8" font-family="Times,serif" font-size="14.00">meets</text>
</g>
<!-- Message -->
<g id="node23" class="node"><title>Message</title>
<ellipse fill="none" stroke="black" cx="495.671" cy="-99" rx="42.4939" ry="18"/>
<text text-anchor="middle" x="495.671" y="-95.3" font-family="Times,serif" font-size="14.00">Message</text>
</g>
<!-- Threshold&#45;&gt;Message -->
<g id="edge23" class="edge"><title>Threshold&#45;&gt;Message</title>
<path fill="none" stroke="black" d="M304.615,-192.881C344.084,-173.385 415.277,-138.218 458.434,-116.9"/>
<polygon fill="black" stroke="black" points="460.041,-120.01 467.457,-112.443 456.941,-113.734 460.041,-120.01"/>
<text text-anchor="middle" x="372.678" y="-179.8" font-family="Times,serif" font-size="14.00">displays</text>
</g>
<!-- Debug -->
<g id="node24" class="node"><title>Debug</title>
<ellipse fill="none" stroke="black" cx="725.054" cy="-126" rx="34.394" ry="18"/>
<text text-anchor="middle" x="725.054" y="-122.3" font-family="Times,serif" font-size="14.00">Debug</text>
</g>
<!-- Message&#45;&gt;Debug -->
<g id="edge24" class="edge"><title>Message&#45;&gt;Debug</title>
<path fill="none" stroke="black" d="M536.539,-103.734C577.048,-108.544 639.586,-115.97 681.154,-120.906"/>
<polygon fill="black" stroke="black" points="680.902,-124.4 691.245,-122.104 681.727,-117.449 680.902,-124.4"/>
</g>
<!-- Info -->
<g id="node25" class="node"><title>Info</title>
<ellipse fill="none" stroke="black" cx="725.054" cy="-72" rx="27" ry="18"/>
<text text-anchor="middle" x="725.054" y="-68.3" font-family="Times,serif" font-size="14.00">Info</text>
</g>
<!-- Message&#45;&gt;Info -->
<g id="edge25" class="edge"><title>Message&#45;&gt;Info</title>
<path fill="none" stroke="black" d="M536.539,-94.2661C579.422,-89.1739 646.994,-81.1503 688.24,-76.2527"/>
<polygon fill="black" stroke="black" points="688.861,-79.7036 698.379,-75.0487 688.036,-72.7524 688.861,-79.7036"/>
</g>
<!-- Warning -->
<g id="node26" class="node"><title>Warning</title>
<ellipse fill="none" stroke="black" cx="725.054" cy="-18" rx="42.4939" ry="18"/>
<text text-anchor="middle" x="725.054" y="-14.3" font-family="Times,serif" font-size="14.00">Warning</text>
</g>
<!-- Message&#45;&gt;Warning -->
<g id="edge26" class="edge"><title>Message&#45;&gt;Warning</title>
<path fill="none" stroke="black" d="M521.102,-84.5595C542.409,-72.5003 574.472,-55.6214 604.165,-45 627.073,-36.8056 653.362,-30.5541 675.473,-26.1405"/>
<polygon fill="black" stroke="black" points="676.156,-29.5734 685.312,-24.2416 674.829,-22.7003 676.156,-29.5734"/>
</g>
</g>
</svg>
