<?xml version="1.0" encoding="UTF-8" standalone="no"?>
<!DOCTYPE svg PUBLIC "-//W3C//DTD SVG 1.1//EN"
 "http://www.w3.org/Graphics/SVG/1.1/DTD/svg11.dtd">
<!-- Generated by graphviz version 2.38.0 (20140413.2041)
 -->
<!-- Title: Concepts Pages: 1 -->
<svg width="1253pt" height="291pt"
 viewBox="0.00 0.00 1253.49 291.00" xmlns="http://www.w3.org/2000/svg" xmlns:xlink="http://www.w3.org/1999/xlink">
<g id="graph0" class="graph" transform="scale(1 1) rotate(0) translate(4 287)">
<title>Concepts</title>
<polygon fill="white" stroke="none" points="-4,4 -4,-287 1249.49,-287 1249.49,4 -4,4"/>
<!-- code -->
<g id="node1" class="node"><title>code</title>
<ellipse fill="none" stroke="black" cx="144.246" cy="-91" rx="63.8893" ry="18"/>
<text text-anchor="middle" x="144.246" y="-87.3" font-family="Times,serif" font-size="14.00">Code fragment</text>
</g>
<!-- Function -->
<g id="node2" class="node"><title>Function</title>
<ellipse fill="none" stroke="black" cx="42.2463" cy="-18" rx="42.4939" ry="18"/>
<text text-anchor="middle" x="42.2463" y="-14.3" font-family="Times,serif" font-size="14.00">Function</text>
</g>
<!-- code&#45;&gt;Function -->
<g id="edge1" class="edge"><title>code&#45;&gt;Function</title>
<path fill="none" stroke="black" d="M121.355,-74.0662C106.686,-63.8552 87.5045,-50.5033 71.7033,-39.5044"/>
<polygon fill="black" stroke="black" points="73.5297,-36.5113 63.3227,-33.6709 69.5306,-42.2565 73.5297,-36.5113"/>
</g>
<!-- Program -->
<g id="node3" class="node"><title>Program</title>
<ellipse fill="none" stroke="black" cx="144.246" cy="-18" rx="41.6928" ry="18"/>
<text text-anchor="middle" x="144.246" y="-14.3" font-family="Times,serif" font-size="14.00">Program</text>
</g>
<!-- code&#45;&gt;Program -->
<g id="edge2" class="edge"><title>code&#45;&gt;Program</title>
<path fill="none" stroke="black" d="M144.246,-72.8129C144.246,-64.7895 144.246,-55.0475 144.246,-46.0691"/>
<polygon fill="black" stroke="black" points="147.746,-46.0288 144.246,-36.0288 140.746,-46.0289 147.746,-46.0288"/>
</g>
<!-- Type signature -->
<g id="node4" class="node"><title>Type signature</title>
<ellipse fill="none" stroke="black" cx="267.246" cy="-18" rx="63.8893" ry="18"/>
<text text-anchor="middle" x="267.246" y="-14.3" font-family="Times,serif" font-size="14.00">Type signature</text>
</g>
<!-- code&#45;&gt;Type signature -->
<g id="edge3" class="edge"><title>code&#45;&gt;Type signature</title>
<path fill="none" stroke="black" d="M170.935,-74.5941C188.746,-64.3132 212.364,-50.6797 231.755,-39.487"/>
<polygon fill="black" stroke="black" points="233.698,-42.4064 240.609,-34.3759 230.199,-36.3439 233.698,-42.4064"/>
</g>
<!-- Metric -->
<g id="node5" class="node"><title>Metric</title>
<ellipse fill="none" stroke="black" cx="638.246" cy="-178" rx="34.394" ry="18"/>
<text text-anchor="middle" x="638.246" y="-174.3" font-family="Times,serif" font-size="14.00">Metric</text>
</g>
<!-- Metric&#45;&gt;code -->
<g id="edge4" class="edge"><title>Metric&#45;&gt;code</title>
<path fill="none" stroke="black" d="M604.397,-173.821C552.038,-168.656 448.35,-157.444 361.246,-142 296.596,-130.537 281.22,-123.779 217.246,-109 212.224,-107.84 207.009,-106.632 201.78,-105.418"/>
<polygon fill="black" stroke="black" points="202.288,-101.943 191.755,-103.089 200.704,-108.761 202.288,-101.943"/>
<text text-anchor="middle" x="394.746" y="-130.8" font-family="Times,serif" font-size="14.00">is applied to</text>
</g>
<!-- Lines of code -->
<g id="node6" class="node"><title>Lines of code</title>
<ellipse fill="none" stroke="black" cx="285.246" cy="-91" rx="59.2899" ry="18"/>
<text text-anchor="middle" x="285.246" y="-87.3" font-family="Times,serif" font-size="14.00">Lines of code</text>
</g>
<!-- Metric&#45;&gt;Lines of code -->
<g id="edge5" class="edge"><title>Metric&#45;&gt;Lines of code</title>
<path fill="none" stroke="black" d="M607.433,-169.763C555.13,-157.453 445.652,-131.574 353.246,-109 348.684,-107.885 343.952,-106.721 339.205,-105.546"/>
<polygon fill="black" stroke="black" points="340.038,-102.147 329.489,-103.134 338.351,-108.94 340.038,-102.147"/>
</g>
<!-- Cyclomatic complexity -->
<g id="node7" class="node"><title>Cyclomatic complexity</title>
<ellipse fill="none" stroke="black" cx="456.246" cy="-91" rx="94.4839" ry="18"/>
<text text-anchor="middle" x="456.246" y="-87.3" font-family="Times,serif" font-size="14.00">Cyclomatic complexity</text>
</g>
<!-- Metric&#45;&gt;Cyclomatic complexity -->
<g id="edge6" class="edge"><title>Metric&#45;&gt;Cyclomatic complexity</title>
<path fill="none" stroke="black" d="M613.322,-165.359C584.009,-151.669 534.851,-128.711 499.326,-112.119"/>
<polygon fill="black" stroke="black" points="500.694,-108.896 490.152,-107.835 497.732,-115.238 500.694,-108.896"/>
</g>
<!-- Branching depth -->
<g id="node8" class="node"><title>Branching depth</title>
<ellipse fill="none" stroke="black" cx="638.246" cy="-91" rx="69.5877" ry="18"/>
<text text-anchor="middle" x="638.246" y="-87.3" font-family="Times,serif" font-size="14.00">Branching depth</text>
</g>
<!-- Metric&#45;&gt;Branching depth -->
<g id="edge7" class="edge"><title>Metric&#45;&gt;Branching depth</title>
<path fill="none" stroke="black" d="M638.246,-159.799C638.246,-148.163 638.246,-132.548 638.246,-119.237"/>
<polygon fill="black" stroke="black" points="641.746,-119.175 638.246,-109.175 634.746,-119.175 641.746,-119.175"/>
</g>
<!-- Type tree nodes -->
<g id="node9" class="node"><title>Type tree nodes</title>
<ellipse fill="none" stroke="black" cx="793.246" cy="-91" rx="67.6881" ry="18"/>
<text text-anchor="middle" x="793.246" y="-87.3" font-family="Times,serif" font-size="14.00">Type tree nodes</text>
</g>
<!-- Metric&#45;&gt;Type tree nodes -->
<g id="edge8" class="edge"><title>Metric&#45;&gt;Type tree nodes</title>
<path fill="none" stroke="black" d="M661.117,-164.458C686.149,-150.731 726.65,-128.52 756.222,-112.303"/>
<polygon fill="black" stroke="black" points="757.934,-115.356 765.02,-107.479 754.569,-109.219 757.934,-115.356"/>
</g>
<!-- Expression tree nodes -->
<g id="node10" class="node"><title>Expression tree nodes</title>
<ellipse fill="none" stroke="black" cx="967.246" cy="-91" rx="88.2844" ry="18"/>
<text text-anchor="middle" x="967.246" y="-87.3" font-family="Times,serif" font-size="14.00">Expression tree nodes</text>
</g>
<!-- Metric&#45;&gt;Expression tree nodes -->
<g id="edge9" class="edge"><title>Metric&#45;&gt;Expression tree nodes</title>
<path fill="none" stroke="black" d="M668.608,-169.156C722.054,-155.348 833.952,-126.438 904.575,-108.192"/>
<polygon fill="black" stroke="black" points="905.877,-111.47 914.683,-105.58 904.125,-104.693 905.877,-111.47"/>
</g>
<!-- Criterion -->
<g id="node11" class="node"><title>Criterion</title>
<ellipse fill="none" stroke="black" cx="794.246" cy="-265" rx="79.8859" ry="18"/>
<text text-anchor="middle" x="794.246" y="-261.3" font-family="Times,serif" font-size="14.00">Validation criterion</text>
</g>
<!-- Criterion&#45;&gt;Metric -->
<g id="edge10" class="edge"><title>Criterion&#45;&gt;Metric</title>
<path fill="none" stroke="black" d="M765.269,-248.211C738.354,-233.546 698.34,-211.744 670.439,-196.541"/>
<polygon fill="black" stroke="black" points="671.933,-193.369 661.477,-191.658 668.584,-199.516 671.933,-193.369"/>
<text text-anchor="middle" x="738.246" y="-217.8" font-family="Times,serif" font-size="14.00">uses</text>
</g>
<!-- Threshold -->
<g id="node12" class="node"><title>Threshold</title>
<ellipse fill="none" stroke="black" cx="897.246" cy="-178" rx="46.2923" ry="18"/>
<text text-anchor="middle" x="897.246" y="-174.3" font-family="Times,serif" font-size="14.00">Threshold</text>
</g>
<!-- Criterion&#45;&gt;Threshold -->
<g id="edge11" class="edge"><title>Criterion&#45;&gt;Threshold</title>
<path fill="none" stroke="black" d="M814.596,-247.207C830.517,-234.068 852.8,-215.679 870.218,-201.305"/>
<polygon fill="black" stroke="black" points="872.843,-203.676 878.328,-194.612 868.388,-198.277 872.843,-203.676"/>
<text text-anchor="middle" x="868.746" y="-217.8" font-family="Times,serif" font-size="14.00">meets</text>
</g>
<!-- Message -->
<g id="node13" class="node"><title>Message</title>
<ellipse fill="none" stroke="black" cx="1116.25" cy="-91" rx="42.4939" ry="18"/>
<text text-anchor="middle" x="1116.25" y="-87.3" font-family="Times,serif" font-size="14.00">Message</text>
</g>
<!-- Threshold&#45;&gt;Message -->
<g id="edge12" class="edge"><title>Threshold&#45;&gt;Message</title>
<path fill="none" stroke="black" d="M929.091,-164.64C968.161,-149.476 1034.41,-123.764 1076.7,-107.348"/>
<polygon fill="black" stroke="black" points="1078.07,-110.572 1086.12,-103.691 1075.54,-104.047 1078.07,-110.572"/>
<text text-anchor="middle" x="1042.75" y="-130.8" font-family="Times,serif" font-size="14.00">displays</text>
</g>
<!-- Debug -->
<g id="node14" class="node"><title>Debug</title>
<ellipse fill="none" stroke="black" cx="1037.25" cy="-18" rx="34.394" ry="18"/>
<text text-anchor="middle" x="1037.25" y="-14.3" font-family="Times,serif" font-size="14.00">Debug</text>
</g>
<!-- Message&#45;&gt;Debug -->
<g id="edge13" class="edge"><title>Message&#45;&gt;Debug</title>
<path fill="none" stroke="black" d="M1098.71,-74.2428C1087.75,-64.39 1073.48,-51.5622 1061.44,-40.7481"/>
<polygon fill="black" stroke="black" points="1063.7,-38.0654 1053.92,-33.9841 1059.02,-43.2717 1063.7,-38.0654"/>
</g>
<!-- Info -->
<g id="node15" class="node"><title>Info</title>
<ellipse fill="none" stroke="black" cx="1116.25" cy="-18" rx="27" ry="18"/>
<text text-anchor="middle" x="1116.25" y="-14.3" font-family="Times,serif" font-size="14.00">Info</text>
</g>
<!-- Message&#45;&gt;Info -->
<g id="edge14" class="edge"><title>Message&#45;&gt;Info</title>
<path fill="none" stroke="black" d="M1116.25,-72.8129C1116.25,-64.7895 1116.25,-55.0475 1116.25,-46.0691"/>
<polygon fill="black" stroke="black" points="1119.75,-46.0288 1116.25,-36.0288 1112.75,-46.0289 1119.75,-46.0288"/>
</g>
<!-- Warning -->
<g id="node16" class="node"><title>Warning</title>
<ellipse fill="none" stroke="black" cx="1203.25" cy="-18" rx="42.4939" ry="18"/>
<text text-anchor="middle" x="1203.25" y="-14.3" font-family="Times,serif" font-size="14.00">Warning</text>
</g>
<!-- Message&#45;&gt;Warning -->
<g id="edge15" class="edge"><title>Message&#45;&gt;Warning</title>
<path fill="none" stroke="black" d="M1135.12,-74.5941C1147.21,-64.7319 1163.07,-51.7846 1176.45,-40.8662"/>
<polygon fill="black" stroke="black" points="1178.87,-43.4102 1184.41,-34.3759 1174.44,-37.987 1178.87,-43.4102"/>
</g>
</g>
</svg>
