<?xml version="1.0" encoding="UTF-8" standalone="no"?>
<!DOCTYPE svg PUBLIC "-//W3C//DTD SVG 1.1//EN"
 "http://www.w3.org/Graphics/SVG/1.1/DTD/svg11.dtd">
<!-- Generated by graphviz version 2.38.0 (20140413.2041)
 -->
<!-- Title: Concepts Pages: 1 -->
<svg width="889pt" height="854pt"
 viewBox="0.00 0.00 889.04 854.00" xmlns="http://www.w3.org/2000/svg" xmlns:xlink="http://www.w3.org/1999/xlink">
<g id="graph0" class="graph" transform="scale(1 1) rotate(0) translate(4 850)">
<title>Concepts</title>
<polygon fill="white" stroke="none" points="-4,4 -4,-850 885.04,-850 885.04,4 -4,4"/>
<!-- code -->
<g id="node1" class="node"><title>code</title>
<ellipse fill="none" stroke="black" cx="513.22" cy="-693" rx="63.8893" ry="18"/>
<text text-anchor="middle" x="513.22" y="-689.3" font-family="Times,serif" font-size="14.00">Code fragment</text>
</g>
<!-- Function -->
<g id="node2" class="node"><title>Function</title>
<ellipse fill="none" stroke="black" cx="760.151" cy="-828" rx="42.4939" ry="18"/>
<text text-anchor="middle" x="760.151" y="-824.3" font-family="Times,serif" font-size="14.00">Function</text>
</g>
<!-- code&#45;&gt;Function -->
<g id="edge1" class="edge"><title>code&#45;&gt;Function</title>
<path fill="none" stroke="black" d="M529.273,-710.567C551.026,-734.78 593.669,-778.015 639.262,-801 660.822,-811.869 686.749,-818.405 708.968,-822.315"/>
<polygon fill="black" stroke="black" points="708.455,-825.777 718.888,-823.932 709.581,-818.868 708.455,-825.777"/>
</g>
<!-- Program -->
<g id="node3" class="node"><title>Program</title>
<ellipse fill="none" stroke="black" cx="760.151" cy="-774" rx="41.6928" ry="18"/>
<text text-anchor="middle" x="760.151" y="-770.3" font-family="Times,serif" font-size="14.00">Program</text>
</g>
<!-- code&#45;&gt;Program -->
<g id="edge2" class="edge"><title>code&#45;&gt;Program</title>
<path fill="none" stroke="black" d="M545.712,-708.547C570.625,-720.366 606.545,-736.354 639.262,-747 662.662,-754.614 689.312,-760.848 711.534,-765.4"/>
<polygon fill="black" stroke="black" points="710.913,-768.845 721.405,-767.371 712.284,-761.98 710.913,-768.845"/>
</g>
<!-- Type signature -->
<g id="node4" class="node"><title>Type signature</title>
<ellipse fill="none" stroke="black" cx="760.151" cy="-720" rx="63.8893" ry="18"/>
<text text-anchor="middle" x="760.151" y="-716.3" font-family="Times,serif" font-size="14.00">Type signature</text>
</g>
<!-- code&#45;&gt;Type signature -->
<g id="edge3" class="edge"><title>code&#45;&gt;Type signature</title>
<path fill="none" stroke="black" d="M572.887,-699.467C608.203,-703.36 653.339,-708.336 690.335,-712.414"/>
<polygon fill="black" stroke="black" points="690.215,-715.922 700.539,-713.539 690.982,-708.964 690.215,-715.922"/>
</g>
<!-- TypeDecl -->
<g id="node5" class="node"><title>TypeDecl</title>
<ellipse fill="none" stroke="black" stroke-dasharray="5,2" cx="760.151" cy="-666" rx="70.3881" ry="18"/>
<text text-anchor="middle" x="760.151" y="-662.3" font-family="Times,serif" font-size="14.00">Type declaration</text>
</g>
<!-- code&#45;&gt;TypeDecl -->
<g id="edge4" class="edge"><title>code&#45;&gt;TypeDecl</title>
<path fill="none" stroke="black" d="M572.887,-686.533C606.651,-682.811 649.39,-678.099 685.411,-674.129"/>
<polygon fill="black" stroke="black" points="685.823,-677.605 695.379,-673.03 685.056,-670.647 685.823,-677.605"/>
</g>
<!-- ClassDecl -->
<g id="node6" class="node"><title>ClassDecl</title>
<ellipse fill="none" stroke="black" stroke-dasharray="5,2" cx="760.151" cy="-612" rx="71.4873" ry="18"/>
<text text-anchor="middle" x="760.151" y="-608.3" font-family="Times,serif" font-size="14.00">Class declaration</text>
</g>
<!-- code&#45;&gt;ClassDecl -->
<g id="edge5" class="edge"><title>code&#45;&gt;ClassDecl</title>
<path fill="none" stroke="black" d="M545.712,-677.453C570.625,-665.634 606.545,-649.646 639.262,-639 656.137,-633.509 674.702,-628.736 692.078,-624.794"/>
<polygon fill="black" stroke="black" points="693.14,-628.144 702.15,-622.57 691.63,-621.309 693.14,-628.144"/>
</g>
<!-- Metric -->
<g id="node7" class="node"><title>Metric</title>
<ellipse fill="none" stroke="black" cx="275.032" cy="-315" rx="34.394" ry="18"/>
<text text-anchor="middle" x="275.032" y="-311.3" font-family="Times,serif" font-size="14.00">Metric</text>
</g>
<!-- Metric&#45;&gt;code -->
<g id="edge6" class="edge"><title>Metric&#45;&gt;code</title>
<path fill="none" stroke="black" d="M286.794,-332.224C324.44,-392.474 450.387,-594.042 495.756,-666.65"/>
<polygon fill="black" stroke="black" points="492.854,-668.612 501.121,-675.238 498.79,-664.903 492.854,-668.612"/>
<text text-anchor="middle" x="372.678" y="-518.8" font-family="Times,serif" font-size="14.00">is applied to</text>
</g>
<!-- CodeMetric -->
<g id="node8" class="node"><title>CodeMetric</title>
<ellipse fill="none" stroke="black" cx="513.22" cy="-423" rx="54.6905" ry="18"/>
<text text-anchor="middle" x="513.22" y="-419.3" font-family="Times,serif" font-size="14.00">Code metric</text>
</g>
<!-- Metric&#45;&gt;CodeMetric -->
<g id="edge7" class="edge"><title>Metric&#45;&gt;CodeMetric</title>
<path fill="none" stroke="black" d="M301.758,-326.763C342.557,-345.42 422.464,-381.958 471.223,-404.254"/>
<polygon fill="black" stroke="black" points="469.989,-407.538 480.539,-408.513 472.9,-401.172 469.989,-407.538"/>
</g>
<!-- TypeMetric -->
<g id="node9" class="node"><title>TypeMetric</title>
<ellipse fill="none" stroke="black" cx="513.22" cy="-234" rx="89.0842" ry="18"/>
<text text-anchor="middle" x="513.22" y="-230.3" font-family="Times,serif" font-size="14.00">Type signature metric</text>
</g>
<!-- Metric&#45;&gt;TypeMetric -->
<g id="edge8" class="edge"><title>Metric&#45;&gt;TypeMetric</title>
<path fill="none" stroke="black" d="M304.522,-305.23C342.286,-292.278 409.706,-269.157 457.479,-252.773"/>
<polygon fill="black" stroke="black" points="458.733,-256.043 467.057,-249.489 456.462,-249.422 458.733,-256.043"/>
</g>
<!-- CommentMetric -->
<g id="node10" class="node"><title>CommentMetric</title>
<ellipse fill="none" stroke="black" cx="513.22" cy="-315" rx="71.4873" ry="18"/>
<text text-anchor="middle" x="513.22" y="-311.3" font-family="Times,serif" font-size="14.00">Comment metric</text>
</g>
<!-- Metric&#45;&gt;CommentMetric -->
<g id="edge9" class="edge"><title>Metric&#45;&gt;CommentMetric</title>
<path fill="none" stroke="black" d="M309.621,-315C341.153,-315 389.564,-315 431.157,-315"/>
<polygon fill="black" stroke="black" points="431.293,-318.5 441.293,-315 431.293,-311.5 431.293,-318.5"/>
</g>
<!-- Lines of code -->
<g id="node11" class="node"><title>Lines of code</title>
<ellipse fill="none" stroke="black" cx="760.151" cy="-558" rx="59.2899" ry="18"/>
<text text-anchor="middle" x="760.151" y="-554.3" font-family="Times,serif" font-size="14.00">Lines of code</text>
</g>
<!-- CodeMetric&#45;&gt;Lines of code -->
<g id="edge10" class="edge"><title>CodeMetric&#45;&gt;Lines of code</title>
<path fill="none" stroke="black" d="M529.273,-440.567C551.026,-464.78 593.669,-508.015 639.262,-531 656.38,-539.63 676.25,-545.528 694.833,-549.549"/>
<polygon fill="black" stroke="black" points="694.209,-552.993 704.704,-551.54 695.593,-546.132 694.209,-552.993"/>
</g>
<!-- Cyclomatic complexity -->
<g id="node12" class="node"><title>Cyclomatic complexity</title>
<ellipse fill="none" stroke="black" cx="760.151" cy="-504" rx="94.4839" ry="18"/>
<text text-anchor="middle" x="760.151" y="-500.3" font-family="Times,serif" font-size="14.00">Cyclomatic complexity</text>
</g>
<!-- CodeMetric&#45;&gt;Cyclomatic complexity -->
<g id="edge11" class="edge"><title>CodeMetric&#45;&gt;Cyclomatic complexity</title>
<path fill="none" stroke="black" d="M544.438,-437.941C569.39,-449.815 605.982,-466.171 639.262,-477 653.109,-481.506 668.094,-485.528 682.626,-489.004"/>
<polygon fill="black" stroke="black" points="682.061,-492.466 692.594,-491.323 683.647,-485.648 682.061,-492.466"/>
</g>
<!-- Branching depth -->
<g id="node13" class="node"><title>Branching depth</title>
<ellipse fill="none" stroke="black" cx="760.151" cy="-450" rx="69.5877" ry="18"/>
<text text-anchor="middle" x="760.151" y="-446.3" font-family="Times,serif" font-size="14.00">Branching depth</text>
</g>
<!-- CodeMetric&#45;&gt;Branching depth -->
<g id="edge12" class="edge"><title>CodeMetric&#45;&gt;Branching depth</title>
<path fill="none" stroke="black" d="M565.267,-428.627C600.145,-432.472 646.901,-437.626 685.76,-441.91"/>
<polygon fill="black" stroke="black" points="685.651,-445.419 695.974,-443.036 686.418,-438.461 685.651,-445.419"/>
</g>
<!-- ExprNodes -->
<g id="node14" class="node"><title>ExprNodes</title>
<ellipse fill="none" stroke="black" stroke-dasharray="5,2" cx="760.151" cy="-396" rx="88.2844" ry="18"/>
<text text-anchor="middle" x="760.151" y="-392.3" font-family="Times,serif" font-size="14.00">Expression tree nodes</text>
</g>
<!-- CodeMetric&#45;&gt;ExprNodes -->
<g id="edge13" class="edge"><title>CodeMetric&#45;&gt;ExprNodes</title>
<path fill="none" stroke="black" d="M565.267,-417.373C596.152,-413.968 636.351,-409.537 672.133,-405.592"/>
<polygon fill="black" stroke="black" points="672.54,-409.069 682.096,-404.494 671.773,-402.111 672.54,-409.069"/>
</g>
<!-- CodeCommentRatio -->
<g id="node15" class="node"><title>CodeCommentRatio</title>
<ellipse fill="none" stroke="black" cx="760.151" cy="-342" rx="97.4827" ry="18"/>
<text text-anchor="middle" x="760.151" y="-338.3" font-family="Times,serif" font-size="14.00">Code&#45;to&#45;comments ratio</text>
</g>
<!-- CodeMetric&#45;&gt;CodeCommentRatio -->
<g id="edge14" class="edge"><title>CodeMetric&#45;&gt;CodeCommentRatio</title>
<path fill="none" stroke="black" d="M544.438,-408.059C569.39,-396.185 605.982,-379.829 639.262,-369 652.861,-364.575 667.559,-360.616 681.847,-357.182"/>
<polygon fill="black" stroke="black" points="682.713,-360.574 691.654,-354.89 681.12,-353.758 682.713,-360.574"/>
</g>
<!-- Type tree nodes -->
<g id="node16" class="node"><title>Type tree nodes</title>
<ellipse fill="none" stroke="black" cx="760.151" cy="-234" rx="67.6881" ry="18"/>
<text text-anchor="middle" x="760.151" y="-230.3" font-family="Times,serif" font-size="14.00">Type tree nodes</text>
</g>
<!-- TypeMetric&#45;&gt;Type tree nodes -->
<g id="edge15" class="edge"><title>TypeMetric&#45;&gt;Type tree nodes</title>
<path fill="none" stroke="black" d="M602.3,-234C628.336,-234 656.629,-234 681.926,-234"/>
<polygon fill="black" stroke="black" points="682.197,-237.5 692.197,-234 682.197,-230.5 682.197,-237.5"/>
</g>
<!-- Number of function arguments -->
<g id="node17" class="node"><title>Number of function arguments</title>
<ellipse fill="none" stroke="black" cx="760.151" cy="-180" rx="120.779" ry="18"/>
<text text-anchor="middle" x="760.151" y="-176.3" font-family="Times,serif" font-size="14.00">Number of function arguments</text>
</g>
<!-- TypeMetric&#45;&gt;Number of function arguments -->
<g id="edge16" class="edge"><title>TypeMetric&#45;&gt;Number of function arguments</title>
<path fill="none" stroke="black" d="M574.137,-220.79C606.491,-213.657 646.806,-204.769 681.537,-197.111"/>
<polygon fill="black" stroke="black" points="682.635,-200.454 691.646,-194.883 681.127,-193.618 682.635,-200.454"/>
</g>
<!-- CommentMetric&#45;&gt;CodeCommentRatio -->
<g id="edge18" class="edge"><title>CommentMetric&#45;&gt;CodeCommentRatio</title>
<path fill="none" stroke="black" d="M578.893,-322.129C605.517,-325.064 636.87,-328.52 665.897,-331.72"/>
<polygon fill="black" stroke="black" points="665.733,-335.223 676.056,-332.84 666.5,-328.265 665.733,-335.223"/>
</g>
<!-- FleschComments -->
<g id="node18" class="node"><title>FleschComments</title>
<ellipse fill="none" stroke="black" stroke-dasharray="5,2" cx="760.151" cy="-288" rx="117.779" ry="18"/>
<text text-anchor="middle" x="760.151" y="-284.3" font-family="Times,serif" font-size="14.00">Fleisch&#45;Kincaid on comments</text>
</g>
<!-- CommentMetric&#45;&gt;FleschComments -->
<g id="edge17" class="edge"><title>CommentMetric&#45;&gt;FleschComments</title>
<path fill="none" stroke="black" d="M578.893,-307.871C601.915,-305.333 628.473,-302.405 654.006,-299.591"/>
<polygon fill="black" stroke="black" points="654.553,-303.052 664.109,-298.477 653.786,-296.094 654.553,-303.052"/>
</g>
<!-- Criterion -->
<g id="node19" class="node"><title>Criterion</title>
<ellipse fill="none" stroke="black" cx="79.9429" cy="-269" rx="79.8859" ry="18"/>
<text text-anchor="middle" x="79.9429" y="-265.3" font-family="Times,serif" font-size="14.00">Validation criterion</text>
</g>
<!-- Criterion&#45;&gt;Metric -->
<g id="edge19" class="edge"><title>Criterion&#45;&gt;Metric</title>
<path fill="none" stroke="black" d="M135.5,-281.997C166.588,-289.403 204.89,-298.528 233.335,-305.305"/>
<polygon fill="black" stroke="black" points="232.798,-308.775 243.337,-307.687 234.42,-301.965 232.798,-308.775"/>
<text text-anchor="middle" x="194.386" y="-301.8" font-family="Times,serif" font-size="14.00">uses</text>
</g>
<!-- Threshold -->
<g id="node20" class="node"><title>Threshold</title>
<ellipse fill="none" stroke="black" cx="275.032" cy="-207" rx="46.2923" ry="18"/>
<text text-anchor="middle" x="275.032" y="-203.3" font-family="Times,serif" font-size="14.00">Threshold</text>
</g>
<!-- Criterion&#45;&gt;Threshold -->
<g id="edge20" class="edge"><title>Criterion&#45;&gt;Threshold</title>
<path fill="none" stroke="black" d="M126.702,-254.307C157.697,-244.355 198.453,-231.268 229.241,-221.382"/>
<polygon fill="black" stroke="black" points="230.411,-224.683 238.862,-218.293 228.271,-218.018 230.411,-224.683"/>
<text text-anchor="middle" x="194.386" y="-239.8" font-family="Times,serif" font-size="14.00">meets</text>
</g>
<!-- Message -->
<g id="node21" class="node"><title>Message</title>
<ellipse fill="none" stroke="black" cx="513.22" cy="-99" rx="42.4939" ry="18"/>
<text text-anchor="middle" x="513.22" y="-95.3" font-family="Times,serif" font-size="14.00">Message</text>
</g>
<!-- Threshold&#45;&gt;Message -->
<g id="edge21" class="edge"><title>Threshold&#45;&gt;Message</title>
<path fill="none" stroke="black" d="M305.945,-193.322C348.797,-173.727 427.639,-137.676 474.456,-116.268"/>
<polygon fill="black" stroke="black" points="476.016,-119.403 483.655,-112.062 473.105,-113.037 476.016,-119.403"/>
<text text-anchor="middle" x="372.678" y="-181.8" font-family="Times,serif" font-size="14.00">displays</text>
</g>
<!-- Debug -->
<g id="node22" class="node"><title>Debug</title>
<ellipse fill="none" stroke="black" cx="760.151" cy="-126" rx="34.394" ry="18"/>
<text text-anchor="middle" x="760.151" y="-122.3" font-family="Times,serif" font-size="14.00">Debug</text>
</g>
<!-- Message&#45;&gt;Debug -->
<g id="edge22" class="edge"><title>Message&#45;&gt;Debug</title>
<path fill="none" stroke="black" d="M554.391,-103.428C598.836,-108.328 670.197,-116.194 715.858,-121.228"/>
<polygon fill="black" stroke="black" points="715.712,-124.733 726.036,-122.35 716.479,-117.775 715.712,-124.733"/>
</g>
<!-- Info -->
<g id="node23" class="node"><title>Info</title>
<ellipse fill="none" stroke="black" cx="760.151" cy="-72" rx="27" ry="18"/>
<text text-anchor="middle" x="760.151" y="-68.3" font-family="Times,serif" font-size="14.00">Info</text>
</g>
<!-- Message&#45;&gt;Info -->
<g id="edge23" class="edge"><title>Message&#45;&gt;Info</title>
<path fill="none" stroke="black" d="M554.391,-94.5717C601.256,-89.4056 678.046,-80.9406 723.077,-75.9766"/>
<polygon fill="black" stroke="black" points="723.707,-79.4284 733.264,-74.8537 722.94,-72.4706 723.707,-79.4284"/>
</g>
<!-- Warning -->
<g id="node24" class="node"><title>Warning</title>
<ellipse fill="none" stroke="black" cx="760.151" cy="-18" rx="42.4939" ry="18"/>
<text text-anchor="middle" x="760.151" y="-14.3" font-family="Times,serif" font-size="14.00">Warning</text>
</g>
<!-- Message&#45;&gt;Warning -->
<g id="edge24" class="edge"><title>Message&#45;&gt;Warning</title>
<path fill="none" stroke="black" d="M541.461,-85.4798C566.417,-73.5205 604.633,-56.2679 639.262,-45 662.486,-37.4431 688.911,-31.246 711.032,-26.7034"/>
<polygon fill="black" stroke="black" points="711.747,-30.1297 720.865,-24.7338 710.373,-23.266 711.747,-30.1297"/>
</g>
</g>
</svg>
